<?xml version="1.0" encoding="utf-8"?>
<!-- Generator: Adobe Illustrator 25.4.1, SVG Export Plug-In . SVG Version: 6.00 Build 0)  -->
<svg version="1.1" id="LANDING_EVERYTHING" xmlns="http://www.w3.org/2000/svg" xmlns:xlink="http://www.w3.org/1999/xlink" x="0px"
	 y="0px" viewBox="0 0 1378 739" style="enable-background:new 0 0 1378 739;" xml:space="preserve">
<style type="text/css">
	.st0{fill:url(#LANDING_BACKGROUND_00000182524980293417053210000015138160869351145863_);}
	.st1{fill:#010002;}
	.st2{fill:#FFFFFF;}
	.st3{fill-rule:evenodd;clip-rule:evenodd;fill:#D9D9D9;}
</style>
<radialGradient id="LANDING_BACKGROUND_00000127018102991852178730000010091789377495666851_" cx="-159.7009" cy="1221.0211" r="1" gradientTransform="matrix(2.262535e-14 369.5 689 -4.218908e-14 -840594.5 59379)" gradientUnits="userSpaceOnUse">
	<stop  offset="0" style="stop-color:#D9D9D9"/>
	<stop  offset="1" style="stop-color:#737373"/>
</radialGradient>
<rect id="LANDING_BACKGROUND" y="0" style="fill:url(#LANDING_BACKGROUND_00000127018102991852178730000010091789377495666851_);" width="1378" height="739"/>
<g id="LANDING_LOGO">
	<path class="st1" d="M134.2,22.6L113,41.1c-1.3,1.2-2.7,1.7-3.9,1.6c-1.9-0.1-3.1-1.6-3.1-1.6l-20-18.9L85,23l20,18.8
		c0.2,0.2,1.7,1.8,4,2c0.1,0,0.2,0,0.4,0c1.5,0,3.1-0.7,4.5-1.9L135,23.4L134.2,22.6z"/>
	<path class="st1" d="M119.4,24.6c2.1,0,3.8-1.7,3.8-3.8s-1.7-3.8-3.8-3.8c-2.1,0-3.8,1.7-3.8,3.8S117.3,24.6,119.4,24.6z"/>
	<path class="st1" d="M107.3,38.7C107.3,38.7,107.3,38.7,107.3,38.7c0.1,0.1,0.2,0.2,0.3,0.3c0.2,0.2,0.4,0.4,0.6,0.5
		c1.2,1.1,2.8,0.5,3.5-0.5c0.1-0.1,0.3-0.2,0.4-0.3c2.3-2.1,4.6-4.2,7-6.4c0.1-0.1,0.3-0.2,0.4-0.3c2.9-2.6,5.7-5.1,8.6-7.7
		c1.7-1.6-0.8-4.1-2.6-2.6c-2.1,1.8-4.1,3.7-6.2,5.5c0,0,0,0,0,0c-1.4-1.3-3.4-1.2-4.8,0c-2.2,2-4.3,4-6.5,5.9
		c-4.1-3.7-8.2-7.4-12.3-11.1c-2.2-1.9-5.4,1.2-3.2,3.2C97.4,29.9,102.4,34.3,107.3,38.7z"/>
	<path id="Proper" d="M93.8,49h3.6l0.8,1.2v1.6l-0.8,0.8h-2.8V56h-0.8V49z M94.6,49.7v2.7l0.8-0.5h1.7l0.3-0.3v-1.3L97,49.7H94.6z
		 M99.8,49h3.4l1.1,1.6v1l-1,1l1,1.4v2h-0.8v-1.9l-1-1.5h-1l-0.8-0.5V56h-0.8V49z M100.6,49.7v2.2h2.3l0.5-0.5v-0.7l-0.7-1H100.6z
		 M106.6,49h2.8l0.8,1.2v5l-0.8,0.8h-2.8l-0.8-1.2v-5L106.6,49z M106.6,54.7l0.4,0.6h2.1l0.3-0.3v-4.7l-0.4-0.6h-2.1l-0.3,0.3V54.7z
		 M111.8,49h3.6l0.8,1.2v1.6l-0.8,0.8h-2.8V56h-0.8V49z M112.6,49.7v2.7l0.8-0.5h1.7l0.3-0.3v-1.3l-0.4-0.6H112.6z M118.6,49h3.6
		v0.7h-3.3l-0.3,0.3v1.9h2.3v0.7h-2.3v2.1l0.4,0.6h3.2V56h-3.6l-0.8-1.2v-5L118.6,49z M123.8,49h3.4l1.1,1.6v1l-1,1l1,1.4v2h-0.8
		v-1.9l-1-1.5h-1l-0.8-0.5V56h-0.8V49z M124.6,49.7v2.2h2.3l0.5-0.5v-0.7l-0.7-1H124.6z"/>
</g>
<path id="EVERY_MUSCLE_SHOULD_BE_INCLUDED" class="st2" d="M1036.9,532h10.9v2.2h-10l-0.9,1v5.5h7v2.2h-7v6.2l1.2,1.7h9.7v2.2h-10.9
	l-2.4-3.6v-14.9L1036.9,532z M1063.4,532h2.4v14.2l-6.5,6.8h-2.1l-4.7-6.9V532h2.4v13.8l3.4,5.1l5.1-5.2V532z M1072.9,532h10.9v2.2
	h-10l-0.9,1v5.5h7v2.2h-7v6.2l1.2,1.7h9.7v2.2h-10.9l-2.4-3.6v-14.9L1072.9,532z M1088.4,532h10.1l3.2,4.7v3l-3,3l3,4.3v6h-2.4v-5.7
	l-3-4.4h-3.1l-2.4-1.5V553h-2.4V532z M1090.8,534.2v6.5h7l1.5-1.5V537l-2-2.9H1090.8z M1117.3,532h2.4v4.9l-5.5,5.6V553h-2.4v-10.2
	l-5.4-8.1V532h2.4v2.5l4.2,6.2h0.1l4.2-4.4V532z M1142.4,532h2.4v0.8l3.2,4.6l5.3-5.5h2.4v21h-2.4v-17.8l-3,3.1v2.7h-2.6v-0.1
	l-2.9-4.3V553h-2.4V532z M1171.3,532h2.4v21h-2.4v-1.5l-2.4,1.5h-6.1l-2.4-3.6V532h2.4v17.1l1.2,1.7h6.4l1-1V532z M1180.8,532h8.5
	l1.6,2.5l-1.5,1.5l-1.2-1.8h-6.4l-0.9,1v3.9l1.2,1.7h7.5l2.1,3.2v6.9l-2.1,2.2h-9.8l-1.3-1.9l1.5-1.6l0.9,1.3h7.7l0.7-0.6v-6
	l-0.9-1.3h-7.6l-2.4-3.6v-4.8L1180.8,532z M1199.3,532h8.4l2,3l-1.5,1.6l-1.6-2.5h-6.4l-0.9,1v13.9l1.2,1.7h6.3l1.8-1.8l1.2,1.8
	l-2,2.2h-8.5l-2.4-3.6v-14.9L1199.3,532z M1214.4,532h2.4v17l1.2,1.8h7.3v-2.2h2.4v4.3h-10.8l-2.5-3.7V532z M1234.8,532h10.9v2.2
	h-10l-0.9,1v5.5h7v2.2h-7v6.2l1.2,1.7h9.7v2.2h-10.9l-2.4-3.6v-14.9L1234.8,532z M1090.9,570h8.5l1.6,2.5l-1.5,1.5l-1.2-1.8h-6.4
	l-0.9,1v3.9l1.2,1.7h7.5l2.1,3.2v6.9l-2.1,2.2h-9.8l-1.3-1.9l1.5-1.6l0.9,1.3h7.7l0.7-0.6v-6l-0.9-1.3h-7.6l-2.4-3.6v-4.8
	L1090.9,570z M1106.4,570h2.4v10.1l2.4-1.4h3.7l2.4,1.4V570h2.4v21h-2.4v-8.5l-1.1-1.6h-6.5l-0.9,0.9v9.2h-2.4V570z M1126.8,570h8.5
	l2.4,3.6v14.9l-2.4,2.5h-8.5l-2.4-3.6v-14.9L1126.8,570z M1126.8,587.1l1.2,1.7h6.4l0.9-1v-13.9l-1.1-1.7h-6.4l-0.9,1V587.1z
	 M1153.3,570h2.4v21h-2.4v-1.5l-2.4,1.5h-6.1l-2.4-3.6V570h2.4v17.1l1.2,1.7h6.4l1-1V570z M1160.4,570h2.4v17l1.2,1.8h7.3v-2.2h2.4
	v4.3h-10.8l-2.5-3.7V570z M1178.7,570h9.2l4.1,6v12.5l-2.4,2.5h-10.9V570z M1181.1,572.2v16.7h7.5l1-1v-11.5l-2.8-4.2H1181.1z
	 M1214.7,570h11.6l1.4,2v2.8l-3.7,3.9h1.2l2.8,4.1v6.7l-2.4,1.5h-10.9V570z M1217.1,572.2v6.5h3.8l4.3-4.5v-2.1H1217.1z
	 M1217.1,580.9v8h8.5v-5.8l-1.5-2.2H1217.1z M1234.8,570h10.9v2.2h-10l-0.9,1v5.5h7v2.2h-7v6.2l1.2,1.7h9.7v2.2h-10.9l-2.4-3.6
	v-14.9L1234.8,570z M1106.5,608h13.3v2.2h-5.4v16.6h5.4v2.2h-13.3v-2.2h5.4v-16.6h-5.4V608z M1135.3,608h2.4v21h-2.4v-8l-7.3-10.8
	h-1.2V629h-2.4v-21h4.7l6.2,9.1V608z M1145.3,608h8.4l2,3l-1.5,1.6l-1.6-2.5h-6.4l-0.9,1v13.9l1.2,1.7h6.3l1.8-1.8l1.2,1.8l-2,2.2
	h-8.5l-2.4-3.6v-14.9L1145.3,608z M1160.4,608h2.4v17l1.2,1.8h7.3v-2.2h2.4v4.3h-10.8l-2.5-3.7V608z M1189.3,608h2.4v21h-2.4v-1.5
	l-2.4,1.5h-6.1l-2.4-3.6V608h2.4v17.1l1.2,1.7h6.4l1-1V608z M1196.7,608h9.2l4.1,6v12.5l-2.4,2.5h-10.9V608z M1199.1,610.2v16.7h7.5
	l1-1v-11.5l-2.8-4.2H1199.1z M1216.8,608h10.9v2.2h-10l-0.9,1v5.5h7v2.2h-7v6.2l1.2,1.7h9.7v2.2h-10.9l-2.4-3.6v-14.9L1216.8,608z
	 M1232.7,608h9.2l4,6v12.5l-2.4,2.5h-10.9V608z M1235.1,610.2v16.7h7.5l1-1v-11.5l-2.8-4.2H1235.1z"/>
<path id="SPEED_IT_UP" class="st2" d="M208.9,378h8.5l1.6,2.5l-1.5,1.5l-1.2-1.8h-6.4l-0.9,1v3.9l1.2,1.7h7.5l2.1,3.2v6.9l-2.1,2.2
	h-9.8l-1.3-1.9l1.5-1.6l0.9,1.3h7.7l0.7-0.6v-6l-0.9-1.3h-7.6l-2.4-3.6v-4.8L208.9,378z M224.5,378h10.9l2.4,3.6v4.9l-2.4,2.4h-8.5
	V399h-2.4V378z M226.9,380.2v8l2.4-1.4h5.1l0.9-1v-3.9l-1.2-1.8H226.9z M244.9,378h10.9v2.2h-10l-0.9,1v5.6h7v2.2h-7v6.2l1.2,1.7
	h9.7v2.2h-10.9l-2.4-3.6v-14.9L244.9,378z M262.9,378h10.9v2.2h-10l-0.9,1v5.6h7v2.2h-7v6.2l1.2,1.7h9.7v2.2h-10.9l-2.4-3.6v-14.9
	L262.9,378z M278.8,378h9.2l4,6v12.5l-2.4,2.5h-10.9V378z M281.2,380.2v16.7h7.5l1-1v-11.5l-2.8-4.2H281.2z M314.4,378h13.3v2.2
	h-5.4v16.6h5.4v2.2h-13.3v-2.2h5.4v-16.6h-5.4V378z M331.2,378h15.7v2.2h-8.9l2.3,1.4V399h-2.4v-17.1l-1.1-1.7h-5.5V378z M379.3,378
	h2.4v21h-2.4v-1.5l-2.4,1.5h-6.1l-2.4-3.6V378h2.4v17.1l1.2,1.7h6.4l1-1V378z M386.4,378h10.9l2.4,3.6v4.9l-2.4,2.4h-8.5V399h-2.4
	V378z M388.8,380.2v8l2.4-1.4h5.1l0.9-1v-3.9l-1.2-1.8H388.8z"/>
<path id="LANDING_BEHIND" class="st2" d="M648.6,189.1c-0.9-6-4.1-25.3-4.1-25.3V143c0,0,1.6-21.3,6.4-24.4
	c4.9-3.1,25.6-12.3,37-9.2c11.4,3.1,33.3,14.4,31,31.4c-2.3,17.1-17.6,33.2-17.6,33.2l-30.6,19.3l-15.4,1l-6.7-1.2L648.6,189.1z"/>
<g id="LANDING_BODY">
	<path d="M808.2,421.2c-3.5-4.6-8.1-10.7-9.4-14.4c-2.2-6.2-3.8-26-3.8-26c-0.7-23.4-6.3-33.5-6.3-33.5
		c-9.6-15.8-11.4-45.3-11.4-45.3l-0.4-49.8c-3.3-34-27.8-34.3-27.8-34.3C724.4,214.1,721,206,721,206h-0.3
		c-2.5-4.1-16.8-28.5-9.6-39.4c0,0,9.8-13.7,9.9-21.1c0,0,2.4-12.6-10.3-26.7c-6.1-6.7-14.1-13-33.7-12.8
		c-7.6,0.1-19.3,2.1-28.2,12.1c-5.4,6-9.3,13.6-8,25.9c0.3,2.7,4,5.7,1.5,10.9l-5.2,11.9c0,0,0,3.1,4.6,3.1c0,0,1.2,0.1,0.9,2.8v3.8
		c0,0,0.2,1.2,2.2,1.8l-0.2,1.2c0,0-1.1,1.3,0.8,3.9c0.7,1,1.8,2.2,1.2,4.6c0,0-0.8,4.8,1.1,5.9c0,0,2.1,2.5,10.5,1.3
		c2.9-0.4,8.3-2,11.6,2.2c0,0,0.6,5,1.1,8.6H671c0,0-3.4,8.2-28.1,11.9c0,0-24.4,0.3-27.8,34.3l-0.4,49.8c0,0-1.8,29.5-11.4,45.3
		c0,0-5.6,10.2-6.3,33.5c0,0-1.6,19.8-3.8,26c-1.3,3.6-5.9,9.8-9.4,14.3c-7,9-18.8,27.7-12.5,29.8c0,0,4.9,0.5,11.4-12.7
		c0,0-0.1,5.1-5.3,19.8c-1,2.8-5.4,16.8,1.7,11.8c0,0,3.2-2.3,7.5-16.7c0,0-2.3,24.2,0.2,25.5c3.3,1.6,5.1-3.1,6.6-24.4
		c0,0,1.5-6.8,2.2,19.4c0,1.3,2,8.1,4.7,2.3c2.3-4.8,1.3-17.6,1.3-21.9c0,0,2.9,16.6,5.6,16.6c0,0,3.2,3.9,1.9-16.7
		c-0.2-3.3,0.9-10.2,1.1-12.2l0.3-7.9c0,0-0.8-9.1-0.8-12.8c0-0.9,3.1-13.2,11.4-26.2c0,0,17.2-31.4,16.1-51.9
		c0,0-0.2-19.6,6.7-30.7c0,0,4.9,55.5,1.6,71.1c0,0-15.5,38.2-12.1,66.8c2.5,21.2,7.4,66.6,12.3,84.5c2.5,9.3,1,32.7,3.1,38.5
		c0.9,2.5,0.5,4.8-1.6,10.6c-7,20.1-6.1,34.3,11.4,87.6c0,0,5.4,11.8,2.7,33.1c0,0-11.2,23.6-4,24.1c0,0,0.6,1.5,3,0.3
		c0,0,3.9,4.1,8,1.9c0,0,3.9,3.2,7.2,0.4c0,0,2.7,3.1,6.5,0.6c0,0,5.1,3.5,8.1-0.3c0,0,5.4,1.3-4.2-23.6c0,0-3.6-26.3-5.7-31.5
		c-3.8-9.9-1.1-36.7-0.3-42.5c1.3-9.6,0.6-26-1.8-38.7c-1.7-9.1,3-26.3,4.8-36.9c3.7-22.2,10.7-79,9.8-89.7l3,1c2.1,0,3.5-1,3.5-1
		c-0.9,10.8,6.2,67.5,9.8,89.7c1.7,10.6,6.5,27.7,4.8,36.9c-2.4,12.7-3.1,29.1-1.8,38.7c0.8,5.8,3.5,32.7-0.3,42.5
		c-2,5.1-5.6,31.5-5.6,31.5c-9.6,24.8-4.2,23.6-4.2,23.6c3,3.8,8.1,0.3,8.1,0.3c3.8,2.5,6.5-0.6,6.5-0.6c3.3,2.8,7.2-0.4,7.2-0.4
		c4.2,2.2,8-1.9,8-1.9c2.4,1.3,3-0.3,3-0.3c7.2-0.5-4-24.1-4-24.1c-2.7-21.3,2.7-33.1,2.7-33.1c17.5-53.4,18.4-67.5,11.4-87.6
		c-2-5.8-2.5-8.1-1.6-10.6c2.1-5.8,0.6-29.2,3.1-38.5c4.9-17.9,9.8-63.3,12.3-84.5c3.4-28.6-12.1-66.8-12.1-66.8
		c-3.4-15.6,1.6-71.1,1.6-71.1c6.9,11.1,6.7,30.7,6.7,30.7c-1.1,20.5,16.1,51.9,16.1,51.9c8.3,13,11.4,25.3,11.4,26.2
		c0,3.7-0.8,12.8-0.8,12.8l0.3,7.9c0.1,2,1.3,8.9,1,12.2c-1.3,20.5,1.9,16.7,1.9,16.7c2.7,0,5.6-16.6,5.6-16.6
		c0,4.3-1,17.1,1.3,21.9c2.7,5.7,4.6-1,4.7-2.3c0.7-26.2,2.2-19.4,2.2-19.4c1.5,21.3,3.3,26,6.6,24.4c2.5-1.3,0.2-25.5,0.2-25.5
		c4.3,14.4,7.5,16.7,7.5,16.7c7,5,2.7-9,1.7-11.8c-5.2-14.7-5.4-19.8-5.4-19.8c6.5,13.2,11.4,12.7,11.4,12.7
		C827,448.9,815.2,430.1,808.2,421.2z M665.2,188.6c-2.4,2.7-8,4.3-13.3,3.3c-1-0.2-2.7-2.3-1.3-6.5l-1.2-4l-0.5-2.3l2.5,0.3
		c4.6,1.1,14.9-1.4,18-5.1l-0.5-4.8c-4.5-2.4-12.3,5.1-20.4,2.9c0,0-2.8-0.4-0.8-3.2l1.3-2l-0.8-0.9l0.6-1.2l2-3.4l-4.9-5.8
		c0,0-1.7-1.2,0.3-2.5l2.1-2.5l-0.9-3.4l-1.5-4.2l2.7-7.9l0.2-5.2c1.6-8.7,5.4-16,30.3-18.3c0,0,17.7-3.1,27.6,9.2
		c0,0,17.2,18.9,2.7,37c0,0-7.5,8-15.6,7.7l-2.3-2.2c0,0-3.4-5.2-5.1-2c0,0-2.9,4.6-1.7,10.9c0,0,1.2,7.6-2.1,9.2
		C682.8,181.7,667.2,186.5,665.2,188.6z"/>
	<path d="M652.7,146l-0.8,3.3l2.5,3.5c-0.2,2-0.4,2.7,0.4,3.2c2,1.5,3.3-1.3,3.6-2.3C660,148.5,654.9,145.6,652.7,146z"/>
</g>
<path id="MAKE_IT_WORK" class="st2" d="M305.5,412h2.4v0.8l3.1,4.6l5.3-5.5h2.4v21h-2.4v-17.9l-3,3.1v2.7h-2.6v-0.1l-2.9-4.3V433
	h-2.4V412z M328.4,412h8.3v21h-2.4v-9.6h-8.4v9.6h-2.4v-16L328.4,412z M325.9,417.6v3.7h8.4v-7.1h-5.1L325.9,417.6z M352.6,412h3.1
	l-8.2,8.3l8.7,12.7h-2.6l-7.6-11.1l-3.7,3.8v7.2H340v-21h2.4v10.6L352.6,412z M361.9,412h10.9v2.2h-10l-0.9,1v5.6h7v2.2h-7v6.2
	l1.2,1.7h9.7v2.2h-10.9l-2.4-3.6v-14.9L361.9,412z M395.5,412h13.3v2.2h-5.4v16.6h5.4v2.2h-13.3v-2.2h5.4v-16.6h-5.4V412z
	 M412.2,412h15.7v2.2H419l2.3,1.4V433h-2.4v-17.1l-1.1-1.7h-5.5V412z M448.8,412h2.4v17.4l0.8,1.4h0.8l2-2.1v-8h2.4v7.1l2.1,3h0.7
	l0.8-0.9V412h2.4v18.5l-2.4,2.5h-2.7l-1.9-2.8l-2.6,2.8h-2.5l-2.4-3.6V412z M469.8,412h8.5l2.4,3.6v14.9l-2.4,2.5h-8.5l-2.4-3.6
	v-14.9L469.8,412z M469.8,429.1l1.2,1.7h6.4l0.9-1v-14l-1.1-1.7h-6.4l-0.9,1V429.1z M485.4,412h10.1l3.2,4.7v3l-3,3l3,4.3v6h-2.4
	v-5.7l-3-4.4h-3.1l-2.4-1.5V433h-2.4V412z M487.8,414.2v6.5h7l1.5-1.5V417l-2-2.9H487.8z M514.5,412h3.2l-8.2,8.3l8.7,12.7h-2.6
	l-7.6-11.1l-3.7,3.8v7.2h-2.4v-21h2.4v10.6L514.5,412z"/>
<path id="TRAIN" class="st2" d="M134.6,223h88.7v12.2h-50.7l13.3,8.2V342h-13.8v-96.9l-6.5-9.9h-31.1V223z M243.2,223h57.1
	l18.4,26.7v17l-16.8,17.2l16.8,24.3V342h-13.8v-32.3l-17.2-25h-17.5l-13.4-8.3V342h-13.6V223z M256.8,235.2v37.1h39.4l8.7-8.7v-12.1
	l-11.2-16.3H256.8z M373,223h47.3v119h-13.6v-54.4h-47.6V342h-13.6v-90.6L373,223z M359.1,254.6v20.7h47.6v-40.1h-28.7L359.1,254.6z
	 M447.2,223h75.1v12.4h-30.8v94.2h30.8V342h-75.1v-12.4H478v-94.2h-30.8V223z M610.7,223h13.8v119h-13.8v-45.4l-41.3-61.4h-6.6V342
	h-13.6V223h26.7l34.8,51.5V223z"/>
<path id="IT" d="M841.4,343h75.1v12.4h-30.8v94.2h30.8V462h-75.1v-12.4h30.8v-94.2h-30.8V343z M936.6,343h88.7v12.2h-50.7l13.3,8.2
	V462h-13.8v-96.9l-6.5-9.9h-31.1V343z"/>
<path id="Head" class="st2" d="M448.6,30v-7.3h0.8V30H448.6z M443.9,30v-7.3h0.8V30H443.9z M444.3,26.5v-0.7h4.6v0.7H444.3z
	 M451.2,30v-7.3h4.6v0.7H452v2.4h3.6v0.7H452v2.8h3.8V30H451.2z M456.8,30l2.8-7.3h1.1l2.8,7.3h-0.9l-2.4-6.6h0l-2.4,6.6H456.8z
	 M458.1,28v-0.7h4.1V28H458.1z M464.5,30v-7.3h1.8c1.3,0,2.2,0.3,2.9,0.9c0.6,0.6,1,1.5,1,2.7c0,1.2-0.3,2.1-1,2.7
	c-0.6,0.6-1.6,0.9-2.9,0.9H464.5z M466.4,29.3c0.7,0,1.2-0.1,1.7-0.3c0.4-0.2,0.8-0.5,1-1c0.2-0.4,0.3-1,0.3-1.6
	c0-0.7-0.1-1.2-0.3-1.6c-0.2-0.4-0.5-0.8-1-1c-0.4-0.2-1-0.3-1.7-0.3h-1.1v5.8H466.4z"/>
<path id="Your_body" class="st2" d="M576,30v-2.8l-2.9-4.5h0.9l2.4,3.8h0l2.4-3.8h0.9l-2.9,4.5V30H576z M583.4,30.1
	c-0.7,0-1.4-0.2-2-0.5c-0.6-0.3-1-0.8-1.3-1.3c-0.3-0.6-0.5-1.2-0.5-2c0-0.8,0.2-1.4,0.5-2c0.3-0.6,0.7-1,1.3-1.3
	c0.6-0.3,1.2-0.5,2-0.5c0.8,0,1.4,0.2,2,0.5c0.6,0.3,1,0.7,1.3,1.3c0.3,0.6,0.5,1.2,0.5,2c0,0.8-0.2,1.4-0.5,2
	c-0.3,0.6-0.7,1-1.3,1.3C584.8,29.9,584.2,30.1,583.4,30.1z M583.4,29.4c0.6,0,1.1-0.1,1.5-0.4c0.4-0.3,0.8-0.6,1-1
	c0.2-0.5,0.4-1,0.4-1.6s-0.1-1.1-0.4-1.6c-0.2-0.5-0.6-0.8-1-1.1c-0.4-0.3-0.9-0.4-1.5-0.4c-0.6,0-1.1,0.1-1.5,0.4
	c-0.4,0.2-0.8,0.6-1,1.1c-0.2,0.4-0.3,1-0.3,1.6s0.1,1.1,0.3,1.6c0.2,0.4,0.6,0.8,1,1C582.3,29.2,582.8,29.4,583.4,29.4z
	 M591.3,30.1c-0.9,0-1.6-0.2-2.1-0.6c-0.5-0.4-0.7-1.1-0.7-1.9v-4.8h0.8v4.7c0,0.7,0.2,1.2,0.5,1.5c0.3,0.3,0.8,0.5,1.5,0.5
	c0.7,0,1.2-0.2,1.5-0.5c0.3-0.3,0.5-0.8,0.5-1.5v-4.7h0.8v4.8c0,0.8-0.2,1.5-0.7,1.9C592.9,29.9,592.2,30.1,591.3,30.1z M595.9,30
	v-7.3h2.1c1.1,0,1.8,0.2,2.3,0.5c0.5,0.3,0.7,0.9,0.7,1.6c0,0.7-0.2,1.3-0.7,1.6c-0.5,0.3-1.2,0.5-2.2,0.5h-1.8v-0.7h1.7
	c0.8,0,1.3-0.1,1.7-0.3c0.3-0.2,0.5-0.6,0.5-1.1s-0.2-0.9-0.5-1.1c-0.3-0.2-0.9-0.3-1.7-0.3h-1.3V30H595.9z M600.3,30l-3.7-3.4h1
	l3.7,3.4H600.3z M605.6,30v-7.3h2.1c0.9,0,1.6,0.1,2.1,0.4c0.5,0.3,0.7,0.7,0.7,1.3c0,0.4-0.1,0.8-0.4,1.1c-0.2,0.3-0.6,0.5-1,0.6v0
	c0.6,0.1,1,0.3,1.3,0.6c0.3,0.3,0.4,0.7,0.4,1.2c0,0.7-0.3,1.2-0.8,1.5c-0.5,0.3-1.3,0.5-2.3,0.5H605.6z M607.7,29.3
	c0.8,0,1.3-0.1,1.7-0.3c0.4-0.2,0.5-0.6,0.5-1.1c0-0.5-0.2-0.8-0.5-1c-0.4-0.2-0.9-0.3-1.7-0.3H606v-0.7h1.8c0.7,0,1.1-0.1,1.5-0.3
	c0.3-0.2,0.5-0.5,0.5-0.9c0-0.4-0.2-0.7-0.5-0.9c-0.3-0.2-0.8-0.3-1.5-0.3h-1.4v5.9H607.7z M615.3,30.1c-0.7,0-1.4-0.2-2-0.5
	c-0.6-0.3-1-0.8-1.3-1.3c-0.3-0.6-0.5-1.2-0.5-2c0-0.8,0.2-1.4,0.5-2c0.3-0.6,0.7-1,1.3-1.3c0.6-0.3,1.2-0.5,2-0.5
	c0.8,0,1.4,0.2,2,0.5c0.6,0.3,1,0.7,1.3,1.3c0.3,0.6,0.5,1.2,0.5,2c0,0.8-0.2,1.4-0.5,2c-0.3,0.6-0.7,1-1.3,1.3
	C616.7,29.9,616.1,30.1,615.3,30.1z M615.3,29.4c0.6,0,1.1-0.1,1.5-0.4c0.4-0.3,0.8-0.6,1-1c0.2-0.5,0.4-1,0.4-1.6s-0.1-1.1-0.4-1.6
	c-0.2-0.5-0.6-0.8-1-1.1c-0.4-0.3-0.9-0.4-1.5-0.4c-0.6,0-1.1,0.1-1.5,0.4c-0.4,0.2-0.8,0.6-1,1.1c-0.2,0.4-0.3,1-0.3,1.6
	s0.1,1.1,0.3,1.6c0.2,0.4,0.6,0.8,1,1C614.2,29.2,614.7,29.4,615.3,29.4z M620.4,30v-7.3h1.8c1.3,0,2.2,0.3,2.9,0.9
	c0.6,0.6,1,1.5,1,2.7c0,1.2-0.3,2.1-1,2.7c-0.6,0.6-1.6,0.9-2.9,0.9H620.4z M622.3,29.3c0.7,0,1.2-0.1,1.7-0.3c0.4-0.2,0.8-0.5,1-1
	c0.2-0.4,0.3-1,0.3-1.6c0-0.7-0.1-1.2-0.3-1.6c-0.2-0.4-0.5-0.8-1-1c-0.4-0.2-1-0.3-1.7-0.3h-1.1v5.8H622.3z M629.1,30v-2.8
	l-2.9-4.5h0.9l2.4,3.8h0l2.4-3.8h0.9l-2.9,4.5V30H629.1z"/>
<path id="Photos" class="st2" d="M741.9,30v-7.3h2c1.1,0,1.9,0.2,2.4,0.6c0.5,0.4,0.8,1,0.8,1.8c0,0.8-0.2,1.4-0.8,1.8
	c-0.5,0.4-1.3,0.6-2.3,0.6h-1.7v-0.7h1.6c0.8,0,1.4-0.1,1.8-0.4c0.4-0.3,0.5-0.7,0.5-1.2c0-0.6-0.2-1-0.5-1.2
	c-0.4-0.3-0.9-0.4-1.8-0.4h-1.2V30H741.9z M752.9,30v-7.3h0.8V30H752.9z M748.3,30v-7.3h0.8V30H748.3z M748.7,26.5v-0.7h4.6v0.7
	H748.7z M758.9,30.1c-0.7,0-1.4-0.2-2-0.5c-0.6-0.3-1-0.8-1.3-1.3c-0.3-0.6-0.5-1.2-0.5-2c0-0.8,0.2-1.4,0.5-2
	c0.3-0.6,0.7-1,1.3-1.3c0.6-0.3,1.2-0.5,2-0.5c0.8,0,1.4,0.2,2,0.5c0.6,0.3,1,0.7,1.3,1.3c0.3,0.6,0.5,1.2,0.5,2
	c0,0.8-0.2,1.4-0.5,2c-0.3,0.6-0.7,1-1.3,1.3C760.3,29.9,759.6,30.1,758.9,30.1z M758.9,29.4c0.6,0,1.1-0.1,1.5-0.4
	c0.4-0.3,0.8-0.6,1-1c0.2-0.5,0.4-1,0.4-1.6s-0.1-1.1-0.4-1.6c-0.2-0.5-0.6-0.8-1-1.1c-0.4-0.3-0.9-0.4-1.5-0.4
	c-0.6,0-1.1,0.1-1.5,0.4c-0.4,0.2-0.8,0.6-1,1.1c-0.2,0.4-0.4,1-0.4,1.6s0.1,1.1,0.4,1.6c0.2,0.4,0.6,0.8,1,1
	C757.8,29.2,758.3,29.4,758.9,29.4z M765.4,30v-6.6h-2.6v-0.7h6.1v0.7h-2.6V30H765.4z M772.7,30.1c-0.7,0-1.4-0.2-2-0.5
	c-0.6-0.3-1-0.8-1.3-1.3c-0.3-0.6-0.5-1.2-0.5-2c0-0.8,0.2-1.4,0.5-2c0.3-0.6,0.7-1,1.3-1.3c0.6-0.3,1.2-0.5,2-0.5
	c0.8,0,1.4,0.2,2,0.5c0.6,0.3,1,0.7,1.3,1.3c0.3,0.6,0.5,1.2,0.5,2c0,0.8-0.2,1.4-0.5,2c-0.3,0.6-0.7,1-1.3,1.3
	C774.1,29.9,773.4,30.1,772.7,30.1z M772.7,29.4c0.6,0,1.1-0.1,1.5-0.4c0.4-0.3,0.8-0.6,1-1c0.2-0.5,0.4-1,0.4-1.6s-0.1-1.1-0.4-1.6
	c-0.2-0.5-0.6-0.8-1-1.1c-0.4-0.3-0.9-0.4-1.5-0.4c-0.6,0-1.1,0.1-1.5,0.4c-0.4,0.2-0.8,0.6-1,1.1c-0.2,0.4-0.3,1-0.3,1.6
	s0.1,1.1,0.3,1.6c0.2,0.4,0.6,0.8,1,1C771.6,29.2,772.1,29.4,772.7,29.4z M779.8,30.1c-0.4,0-0.9,0-1.3-0.1
	c-0.4-0.1-0.8-0.2-1.1-0.4l0.2-0.7c0.2,0.1,0.4,0.2,0.7,0.3c0.3,0.1,0.5,0.1,0.8,0.2c0.3,0,0.5,0.1,0.8,0.1c0.6,0,1-0.1,1.3-0.3
	c0.3-0.2,0.5-0.5,0.5-1c0-0.2,0-0.4-0.1-0.6c-0.1-0.2-0.2-0.3-0.4-0.4c-0.2-0.1-0.4-0.2-0.6-0.3c-0.2-0.1-0.5-0.2-0.8-0.2
	c-0.3-0.1-0.6-0.2-0.9-0.3c-0.3-0.1-0.5-0.2-0.7-0.4c-0.2-0.2-0.4-0.3-0.5-0.6c-0.1-0.2-0.2-0.5-0.2-0.8c0-0.6,0.2-1.1,0.7-1.4
	c0.5-0.3,1.1-0.5,1.9-0.5c0.4,0,0.9,0,1.3,0.1c0.4,0.1,0.8,0.2,1.1,0.3l-0.2,0.7c-0.3-0.1-0.6-0.2-1-0.3c-0.4-0.1-0.8-0.1-1.1-0.1
	c-0.6,0-1,0.1-1.3,0.3c-0.3,0.2-0.5,0.5-0.5,0.9c0,0.2,0,0.4,0.1,0.5c0.1,0.1,0.2,0.3,0.4,0.4c0.2,0.1,0.4,0.2,0.6,0.3
	c0.2,0.1,0.5,0.2,0.8,0.2c0.3,0.1,0.6,0.2,0.9,0.3c0.3,0.1,0.5,0.2,0.8,0.4c0.2,0.2,0.4,0.4,0.5,0.6c0.1,0.2,0.2,0.5,0.2,0.8
	c0,0.6-0.2,1.1-0.7,1.5C781.4,29.9,780.7,30.1,779.8,30.1z"/>
<path id="Videos" class="st2" d="M890.9,30l-2.8-7.3h0.9l2.4,6.5h0l2.4-6.5h0.9L892,30H890.9z M896,30v-7.3h0.8V30H896z M898.7,30
	v-7.3h1.8c1.3,0,2.2,0.3,2.9,0.9c0.6,0.6,1,1.5,1,2.7c0,1.2-0.3,2.1-1,2.7c-0.6,0.6-1.6,0.9-2.9,0.9H898.7z M900.6,29.3
	c0.7,0,1.2-0.1,1.7-0.3c0.4-0.2,0.8-0.5,1-1c0.2-0.4,0.3-1,0.3-1.6c0-0.7-0.1-1.2-0.3-1.6c-0.2-0.4-0.5-0.8-1-1
	c-0.4-0.2-1-0.3-1.7-0.3h-1.1v5.8H900.6z M905.8,30v-7.3h4.6v0.7h-3.8v2.4h3.6v0.7h-3.6v2.8h3.8V30H905.8z M915.3,30.1
	c-0.7,0-1.4-0.2-2-0.5c-0.6-0.3-1-0.8-1.3-1.3c-0.3-0.6-0.5-1.2-0.5-2c0-0.8,0.2-1.4,0.5-2c0.3-0.6,0.7-1,1.3-1.3
	c0.6-0.3,1.2-0.5,2-0.5c0.8,0,1.4,0.2,2,0.5c0.6,0.3,1,0.7,1.3,1.3c0.3,0.6,0.5,1.2,0.5,2c0,0.8-0.2,1.4-0.5,2
	c-0.3,0.6-0.7,1-1.3,1.3C916.7,29.9,916,30.1,915.3,30.1z M915.3,29.4c0.6,0,1.1-0.1,1.5-0.4c0.4-0.3,0.8-0.6,1-1
	c0.2-0.5,0.4-1,0.4-1.6s-0.1-1.1-0.4-1.6c-0.2-0.5-0.6-0.8-1-1.1c-0.4-0.3-0.9-0.4-1.5-0.4c-0.6,0-1.1,0.1-1.5,0.4
	c-0.4,0.2-0.8,0.6-1,1.1c-0.2,0.4-0.4,1-0.4,1.6s0.1,1.1,0.4,1.6c0.2,0.4,0.6,0.8,1,1C914.2,29.2,914.7,29.4,915.3,29.4z
	 M922.5,30.1c-0.4,0-0.9,0-1.3-0.1c-0.4-0.1-0.8-0.2-1.1-0.4l0.2-0.7c0.2,0.1,0.4,0.2,0.7,0.3c0.3,0.1,0.5,0.1,0.8,0.2
	c0.3,0,0.5,0.1,0.8,0.1c0.6,0,1-0.1,1.4-0.3c0.3-0.2,0.5-0.5,0.5-1c0-0.2,0-0.4-0.2-0.6c-0.1-0.2-0.2-0.3-0.4-0.4
	c-0.2-0.1-0.4-0.2-0.7-0.3c-0.2-0.1-0.5-0.2-0.8-0.2c-0.3-0.1-0.6-0.2-0.9-0.3c-0.3-0.1-0.5-0.2-0.7-0.4c-0.2-0.2-0.4-0.3-0.5-0.6
	c-0.1-0.2-0.2-0.5-0.2-0.8c0-0.6,0.2-1.1,0.7-1.4c0.5-0.3,1.1-0.5,1.9-0.5c0.4,0,0.8,0,1.3,0.1c0.4,0.1,0.8,0.2,1.1,0.3l-0.2,0.7
	c-0.3-0.1-0.6-0.2-1-0.3c-0.4-0.1-0.8-0.1-1.1-0.1c-0.6,0-1,0.1-1.3,0.3c-0.3,0.2-0.5,0.5-0.5,0.9c0,0.2,0,0.4,0.1,0.5
	c0.1,0.1,0.2,0.3,0.4,0.4c0.2,0.1,0.4,0.2,0.6,0.3c0.2,0.1,0.5,0.2,0.8,0.2c0.3,0.1,0.6,0.2,0.9,0.3c0.3,0.1,0.5,0.2,0.8,0.4
	c0.2,0.2,0.4,0.4,0.5,0.6c0.1,0.2,0.2,0.5,0.2,0.8c0,0.6-0.2,1.1-0.7,1.5C924,29.9,923.3,30.1,922.5,30.1z"/>
<g id="Substract">
	
		<image style="overflow:visible;opacity:0.4;" width="352" height="112" xlink:href="C3FEAE1.png"  transform="matrix(1 0 0 1 119.4961 528.496)">
	</image>
	<g>
		<g>
			<path class="st3" d="M463,535H128v94h317.6l17.4-24.9V535z"/>
		</g>
	</g>
</g>
<path id="ARROW" d="M386.7,576.9c0-0.6-0.5-1-1.1-0.9l-9,0.7c-0.6,0-1,0.5-0.9,1.1c0,0.6,0.5,1,1.1,0.9l8-0.6l0.6,8
	c0,0.6,0.5,1,1.1,0.9c0.6,0,1-0.5,0.9-1.1L386.7,576.9z M375.8,590l10.7-12.4l-1.5-1.3l-10.7,12.4L375.8,590z"/>
<path id="GO_TO_MY_BODY" d="M204.8,590.2c-1.6,0-3-0.3-4.2-0.9c-1.2-0.6-2.1-1.5-2.7-2.6c-0.6-1.1-0.9-2.5-0.9-4
	c0-1.6,0.3-2.9,0.9-4s1.5-2,2.7-2.6c1.2-0.6,2.5-0.9,4.1-0.9c0.9,0,1.7,0.1,2.5,0.3c0.8,0.2,1.5,0.5,2.1,0.9l-0.4,1.4
	c-0.6-0.4-1.2-0.6-2-0.8c-0.7-0.2-1.5-0.3-2.2-0.3c-1.3,0-2.3,0.2-3.2,0.7c-0.9,0.5-1.6,1.2-2.1,2.1c-0.5,0.9-0.7,2-0.7,3.2
	c0,1.3,0.2,2.4,0.7,3.3c0.5,0.9,1.2,1.6,2.1,2.1c0.9,0.5,2,0.7,3.3,0.7c0.7,0,1.4-0.1,2.1-0.2c0.7-0.1,1.3-0.4,1.8-0.6l-0.3,0.6
	v-5.4h-5.5v-1.4h7.1v7.3c-0.7,0.3-1.5,0.6-2.4,0.8C206.6,590.1,205.7,590.2,204.8,590.2z M220,590.2c-1.5,0-2.8-0.3-3.9-0.9
	c-1.1-0.6-2-1.5-2.6-2.6c-0.6-1.1-0.9-2.5-0.9-4c0-1.5,0.3-2.8,0.9-4c0.6-1.1,1.5-2,2.6-2.6c1.1-0.6,2.4-0.9,3.9-0.9
	c1.5,0,2.8,0.3,3.9,0.9c1.1,0.6,2,1.5,2.6,2.6c0.6,1.1,0.9,2.4,0.9,4c0,1.5-0.3,2.8-0.9,4c-0.6,1.1-1.5,2-2.6,2.6
	C222.8,589.9,221.5,590.2,220,590.2z M220,588.7c1.2,0,2.2-0.2,3.1-0.7c0.9-0.5,1.6-1.2,2-2.1c0.5-0.9,0.7-2,0.7-3.2
	s-0.2-2.3-0.7-3.2c-0.5-0.9-1.2-1.6-2-2.1c-0.9-0.5-1.9-0.8-3.1-0.8c-1.2,0-2.2,0.3-3.1,0.8c-0.9,0.5-1.6,1.2-2,2.1
	c-0.5,0.9-0.7,2-0.7,3.2s0.2,2.3,0.7,3.2c0.5,0.9,1.2,1.6,2,2.1C217.8,588.5,218.8,588.7,220,588.7z M240,590v-13.1h-5.2v-1.5h12.1
	v1.5h-5.2V590H240z M254.6,590.2c-1.5,0-2.8-0.3-3.9-0.9c-1.1-0.6-2-1.5-2.6-2.6c-0.6-1.1-0.9-2.5-0.9-4c0-1.5,0.3-2.8,0.9-4
	c0.6-1.1,1.5-2,2.6-2.6c1.1-0.6,2.4-0.9,3.9-0.9c1.5,0,2.8,0.3,3.9,0.9c1.1,0.6,2,1.5,2.6,2.6c0.6,1.1,0.9,2.4,0.9,4
	c0,1.5-0.3,2.8-0.9,4c-0.6,1.1-1.5,2-2.6,2.6C257.4,589.9,256.1,590.2,254.6,590.2z M254.6,588.7c1.2,0,2.2-0.2,3.1-0.7
	c0.9-0.5,1.6-1.2,2-2.1c0.5-0.9,0.7-2,0.7-3.2s-0.2-2.3-0.7-3.2c-0.5-0.9-1.2-1.6-2-2.1c-0.9-0.5-1.9-0.8-3.1-0.8
	c-1.2,0-2.2,0.3-3.1,0.8c-0.9,0.5-1.6,1.2-2,2.1c-0.5,0.9-0.7,2-0.7,3.2s0.2,2.3,0.7,3.2c0.5,0.9,1.2,1.6,2,2.1
	C252.4,588.5,253.4,588.7,254.6,588.7z M270.6,590v-14.6h2.1l4.8,9.7h0l4.8-9.7h2.1V590h-1.6v-12.1h0l-4.5,9h-1.6l-4.5-9h0V590
	H270.6z M292.3,590v-5.6l-5.8-9h1.8l4.7,7.5h0l4.7-7.5h1.9l-5.8,9v5.6H292.3z M307.5,590v-14.6h4.3c1.9,0,3.2,0.3,4.1,0.9
	c0.9,0.6,1.4,1.5,1.4,2.6c0,0.9-0.2,1.6-0.7,2.2c-0.5,0.5-1.2,0.9-2.1,1.1v0c1.2,0.2,2,0.6,2.6,1.2c0.6,0.6,0.9,1.4,0.9,2.5
	c0,1.4-0.5,2.4-1.5,3.1c-1,0.7-2.6,1-4.6,1H307.5z M311.9,588.6c1.6,0,2.7-0.2,3.4-0.7c0.7-0.5,1.1-1.2,1.1-2.1c0-1-0.4-1.7-1.1-2.1
	c-0.7-0.5-1.9-0.7-3.4-0.7h-3.5v-1.4h3.5c1.3,0,2.3-0.2,2.9-0.6c0.6-0.4,0.9-1,0.9-1.8c0-0.8-0.3-1.4-0.9-1.8
	c-0.6-0.4-1.6-0.6-2.9-0.6h-2.7v11.7H311.9z M327,590.2c-1.5,0-2.8-0.3-3.9-0.9c-1.1-0.6-2-1.5-2.6-2.6c-0.6-1.1-0.9-2.5-0.9-4
	c0-1.5,0.3-2.8,0.9-4c0.6-1.1,1.5-2,2.6-2.6c1.1-0.6,2.4-0.9,3.9-0.9c1.5,0,2.8,0.3,3.9,0.9c1.1,0.6,2,1.5,2.6,2.6
	c0.6,1.1,0.9,2.4,0.9,4c0,1.5-0.3,2.8-0.9,4c-0.6,1.1-1.5,2-2.6,2.6C329.9,589.9,328.6,590.2,327,590.2z M327,588.7
	c1.2,0,2.2-0.2,3.1-0.7c0.9-0.5,1.6-1.2,2-2.1c0.5-0.9,0.7-2,0.7-3.2s-0.2-2.3-0.7-3.2c-0.5-0.9-1.2-1.6-2-2.1
	c-0.9-0.5-1.9-0.8-3.1-0.8c-1.2,0-2.2,0.3-3.1,0.8c-0.9,0.5-1.6,1.2-2,2.1c-0.5,0.9-0.7,2-0.7,3.2s0.2,2.3,0.7,3.2
	c0.5,0.9,1.2,1.6,2,2.1C324.8,588.5,325.9,588.7,327,588.7z M337.3,590v-14.6h3.7c2.6,0,4.5,0.6,5.7,1.8c1.3,1.2,1.9,3,1.9,5.5
	s-0.6,4.3-1.9,5.5c-1.3,1.2-3.2,1.8-5.7,1.8H337.3z M341.1,588.5c1.4,0,2.5-0.2,3.3-0.6c0.9-0.4,1.5-1.1,2-1.9
	c0.4-0.9,0.7-2,0.7-3.3c0-1.3-0.2-2.4-0.7-3.3c-0.4-0.9-1.1-1.5-2-1.9c-0.9-0.4-2-0.6-3.3-0.6h-2.2v11.7H341.1z M354.6,590v-5.6
	l-5.8-9h1.8l4.7,7.5h0l4.7-7.5h1.9l-5.8,9v5.6H354.6z"/>
</svg>
