<?xml version="1.0" encoding="utf-8"?>
<!-- Generator: Adobe Illustrator 27.5.0, SVG Export Plug-In . SVG Version: 6.00 Build 0)  -->
<svg version="1.1" xmlns="http://www.w3.org/2000/svg" xmlns:xlink="http://www.w3.org/1999/xlink" x="0px" y="0px"
	 viewBox="0 0 499.999 500" style="enable-background:new 0 0 499.999 500;" xml:space="preserve">
<g id="BACKGROUND">
	<rect style="fill:#FFFFFF;" width="499.999" height="500"/>
</g>
<g id="OBJECTS">
	<g>
		<g>
			<path style="fill-rule:evenodd;clip-rule:evenodd;" d="M155.876,257.424c-0.32,0.08-0.639,0.16-0.958,0.24
				c0.102,0.228,0.217,0.525,0.399,0.946c-0.456-0.102-0.718-0.205-0.981-0.228c-0.662-0.057-1.551-0.354-1.984-0.08
				c0,0.468,0.011,0.924,0.023,1.392c0.011,0.604,0.034,1.209,0.057,1.802c0.604-0.091,1.209-0.194,1.813-0.297
				c0.559-0.091,1.118-0.217,1.677-0.342C155.899,259.717,155.876,258.576,155.876,257.424z M155.762,247.626
				c-0.034,0-0.068,0.012-0.102,0.012c-1.107,0.103-2.202,0.205-3.308,0.319c0.023,2.817-0.023,5.634-0.023,8.452
				c1.174-0.069,2.349-0.126,3.524-0.183C155.807,253.364,155.773,250.49,155.762,247.626z M156.765,288.949
				c0.114-3.239-0.57-6.432-0.548-9.684c0.046-6.067-0.205-12.135-0.296-18.214v-0.194c-0.023-1.141-0.046-2.281-0.046-3.434
				c-0.32,0.08-0.639,0.16-0.958,0.24c0.102,0.228,0.217,0.525,0.399,0.946c-0.456-0.102-0.718-0.205-0.981-0.228
				c-0.662-0.057-1.551-0.354-1.984-0.08c0,0.468,0.011,0.924,0.023,1.392c0.011,0.604,0.034,1.209,0.057,1.802
				c0.137,3.479,0.41,6.957,0.57,10.436c0.296,6.387,0.525,12.786,0.821,19.185c0.069,1.3,0.274,2.6,0.445,4.175
				c0.696-0.263,1.232-0.343,1.597-0.639c0.536-0.422,1.05-0.867,0.947-1.779C156.663,291.585,156.72,290.261,156.765,288.949z
				 M394.268,238.262c-0.274-0.217-0.798-0.354-1.141-0.251c-0.717,0.217-1.392,0.605-2.201,0.981
				c-0.033-0.422-0.069-0.73-0.069-1.038c0-3.193,0.127-6.399-0.033-9.581c-0.274-5.623-1.016-11.223-2.372-16.687
				c-0.16-0.616-0.319-1.244-0.479-1.86c-1.21-4.665-2.555-9.284-3.832-13.926c-1.29-4.642-3.114-9.09-5.26-13.379
				c-3.762-7.516-8.155-14.634-13.756-20.941c-1.357-1.517-2.76-2.988-4.161-4.46c-0.662-0.696-1.426-1.289-2.065-1.996
				c-0.729-0.81-1.3-1.779-2.086-2.532c-4.791-4.654-9.844-8.977-15.535-12.501c-4.494-2.795-8.92-5.703-13.517-8.315
				c-8.463-4.813-17.416-8.554-26.78-11.258c-9.616-2.795-19.424-4.596-29.416-5.384c-8.212-0.638-16.425-0.696-24.637-0.057
				c-6.673,0.536-13.231,1.757-19.778,3.034c-7.334,1.426-14.439,3.627-21.374,6.387c-6.262,2.498-12.398,5.258-18.215,8.657
				c-7.334,4.288-13.812,9.706-20.097,15.363c-6.228,5.6-11.691,11.863-16.607,18.638c-4.585,6.307-8.817,12.82-12.387,19.755
				c-3.057,5.931-5.464,12.124-7.562,18.455c-1.836,5.543-3.41,11.144-4.414,16.915c-0.444,2.6-0.992,5.178-1.528,7.767
				c-0.057,0.262-0.102,0.525-0.16,0.788c-0.034,0.182-0.205,0.33-0.331,0.525c-0.285-0.365-0.513-0.662-0.867-1.118
				c-0.046-0.046-0.08-0.103-0.125-0.16c-0.012,0.057-0.035,0.125-0.046,0.183c-0.547,2.304-0.639,4.391-0.878,6.718
				c1.323-0.581,2.486-0.889,3.387-1.54c1.312-0.958,2.749-1.334,4.277-1.631c2.327-0.445,4.642-0.981,6.969-1.448
				c0.821-0.16,1.22-0.593,1.3-1.438c0.08-0.912,0.274-1.825,0.422-2.737c0.046,0.012,0.102,0.012,0.148,0.023
				c-0.103,1.13-0.194,2.27-0.296,3.434c1.004-0.08,1.528-0.354,1.676-1.369c0.126-0.855,0.262-1.699,0.399-2.555
				c0.947-5.726,2.224-11.384,3.935-16.949c0.741-2.406,1.506-4.813,2.315-7.208c0.251-0.741,0.719-1.403,1.084-2.099
				c0.103,0.045,0.206,0.091,0.319,0.125c-0.787,3.239-2.236,6.273-3.079,9.478c-0.844,3.193-1.745,6.387-2.464,9.615
				c-0.502,2.293-1.015,4.574-1.255,6.912c-0.102,0.97-0.148,1.939-0.125,2.92c0.787-0.662,0.764-1.597,0.924-2.452
				c0.034-0.206,0.069-0.411,0.114-0.605c0.136-0.775,0.251-1.551,0.399-2.326c0.16-0.844,0.354-1.688,0.536-2.532
				c0.137,0.639,0.057,1.232,0.011,1.825c-0.091,0.981-0.194,1.95-0.239,2.931c-0.023,0.285-0.034,0.582-0.046,0.867
				c-0.034,1.357,0.457,1.699,1.837,1.449c0.308-0.057,0.616-0.114,0.718-0.126c0.114-0.867,0.228-1.734,0.319-2.589
				c0.388-3.308,0.707-6.536,1.415-9.672c1.551-6.889,3.068-10.699,4.14-11.634c0.046,0.775,0.114,1.414,0.114,2.053
				c-0.034,6.205-0.148,12.409-0.102,18.603c0,0.753,0,1.505,0.011,2.258c0.023,1.654,0.068,3.308,0.125,4.95
				c1.369-0.125,2.749-0.262,4.118-0.399c0.148-2.464,0.331-4.928,0.536-7.391c0.035-0.457,0.068-0.901,0.103-1.358
				c0.353-4.459,0.764-8.896,1.152-13.344c0.069-0.822,0.354-1.723,0.091-2.429c-0.411-1.163,0.662-2.03,0.319-3.091
				c0-0.045,0.217-0.125,0.239-0.217c0.468-1.95,1.107-3.889,1.335-5.862c0.365-2.977,1.186-5.817,2.19-8.589
				c1.106-3,2.623-5.84,3.73-8.84c2.019-5.452,5.942-9.467,9.877-13.47c3.148-3.193,6.935-5.635,10.596-8.189
				c0.206-0.149,0.479-0.194,0.799-0.331c0.148,0.479,0.273,0.833,0.376,1.186c1.802,6.365,2.623,12.854,2.817,19.447
				c0.183,6.079,0.468,12.136,0.833,18.204c0.308,5.122,0.776,10.22,1.186,15.341c0.046,0.581,0.114,1.163,0.217,2.065
				c0.73-0.354,1.3-0.502,1.7-0.855c0.525-0.445,1.049-0.936,0.993-1.791c-0.069-1.266,0.034-2.544-0.012-3.81
				c-0.24-6.729-0.627-13.447-0.707-20.177c-0.068-5.794,0.137-11.589,0.388-17.383c0.102-2.384,0.41-4.836,1.06-7.129
				c0.924-3.273,2.235-6.444,4.015-9.364c1.403-2.304,2.806-4.596,4.312-6.821c0.513-0.752,1.277-1.426,2.064-1.859
				c6.844-3.832,13.721-7.596,20.907-10.733c2.018-0.89,4.037-1.768,6.284-2.019c0.764-0.091,1.494-0.616,2.235-0.958
				c0.388-0.194,0.741-0.468,1.141-0.616c1.038-0.376,2.076-0.718,3.137-1.049c1.438-0.456,2.418-1.403,3.193-2.863
				c-0.707-0.981-1.426-1.973-2.132-2.954c7.607-2.201,26.028-2.121,33.693-0.183c-0.512,0.924-1.038,1.86-1.596,2.863
				c0.558,0.547,0.855,1.186,0.98,1.95c0.285,1.642,1.21,2.749,2.943,3.08c0.433,0.08,0.833,0.365,1.403,0.638
				c-1.802,0.457-1.802,0.457-1.974,1.711c0.012,0,0.012,0,0.023,0c-0.148,0.32-0.433,0.651-0.376,0.913
				c0.125,0.581,0.547,1.106,0.616,1.688c0.171,1.437,1.13,2.076,2.327,2.487c1.095,0.365,2.212,0.707,3.342,0.935
				c5.772,1.152,11.406,2.829,17.063,4.448c0.912,0.262,1.859,0.422,2.76,0.718c0.707,0.228,1.415,0.559,2.065,0.936
				c0.376,0.228,0.719,0.593,0.923,0.981c0.194,0.377,0.205,0.855,0.285,1.289c1.266,7.186,1.745,14.451,2.316,21.706
				c0.456,5.931,0.547,11.896,0.821,17.85c0.023,0.639,0.137,1.289,0.251,2.213c0.639-0.342,1.107-0.525,1.506-0.81
				c0.581-0.422,0.707-1.038,0.718-1.757c0.023-4.573,0.16-9.147,0.126-13.721c-0.034-4.243-0.309-8.475-0.376-12.718
				c-0.069-3.581,0-7.162,0.046-10.744c0.011-0.57,0.216-1.129,0.399-2.064c2.179,1.745,4.665,1.757,6.855,2.795
				c1.848,0.878,3.525,1.95,5.202,3.045c2.247,1.471,4.471,2.977,6.695,4.471c0.148-0.376,0.307-0.741,0.456-1.118
				c-1.22,0.183-1.768-0.958-2.68-1.391c-0.662-0.32-1.46-0.684-1.824-1.255c-0.776-1.221-2.133-1.346-3.149-2.053
				c-1.278-0.9-2.486-1.893-3.74-2.817c-0.343-0.251-0.753-0.422-1.153-0.593c-0.558-0.228-1.539-0.08-1.015-1.243
				c0.046-0.08-0.433-0.434-0.707-0.616c-1.243-0.81-2.497-1.597-3.753-2.407c-0.216-0.136-0.422-0.308-0.729-0.536
				c0.65-0.422,1.06-0.023,1.426,0.194c4.003,2.407,8.03,4.791,11.976,7.311c2.018,1.3,3.866,2.885,5.817,4.288
				c1.7,1.232,3.433,2.406,5.167,3.593c0.627,0.445,1.209,0.89,0.89,1.802c0.867-0.581,1.391,0.046,1.984,0.502
				c-0.194,0.411-0.353,0.764-0.49,1.061c-0.353-0.091-0.684-0.171-1.015-0.262c-0.057,0.091-0.126,0.194-0.194,0.285
				c0.581,0.616,1.083,1.334,1.744,1.848c1.46,1.129,2.475,2.475,3.012,4.288c1.859,6.398,3.376,18.968,3.844,25.218
				c0.307,4.061,0.501,8.144,0.673,12.227c0.022,0.673,0.046,1.357,0.068,2.03c0.183,4.996,0.331,9.992,0.479,14.999
				c0.012,0.308,0.023,0.604,0.023,0.912c1.824-0.148,3.638-0.308,5.452-0.456c0.079-1.038,0.159-2.076,0.262-3.114
				c0.228-2.464-0.217-4.916,0.194-7.38c0.263-1.688,0.159-3.433,0.159-5.167v-0.57c0.012-2.144,0.252-4.335-0.103-6.421
				c-0.319-1.985-0.501-3.798,0.343-5.68c0.296-0.673,0.227-1.517,0.353-2.281c0.32-1.985,0.605-3.981,1.004-5.966
				c0.309-1.597,0.331-3.296,1.369-4.859c0.627,0.707,1.334,1.243,1.676,1.95c0.958,2.008,1.813,4.072,2.623,6.136
				c2.029,5.247,3.513,10.653,4.825,16.117c0.102,0.422,0.194,0.844,0.296,1.266c0.742,3.171,1.437,6.365,2.223,9.524
				c0.388,1.517,1.37,1.688,2.497,0.547c0.401-0.399,0.753-0.844,1.279-1.438c0.147,0.582,0.263,0.936,0.33,1.289
				c0.526,2.761,1.063,5.509,1.553,8.281c0.172,0.97,0.296,1.961,0.261,2.943c-0.011,0.444-0.388,1.152-0.74,1.266
				c-1.345,0.422-1.381,0.354-1.345,1.551c0.033,1.049,0.158,2.099,0.114,3.137c-0.08,1.642-0.16,3.296-0.241,4.939
				c-0.147,3.103-0.307,6.194-0.548,9.285c-0.205,2.623-0.501,5.281-1.127,7.836c-1.359,5.463-2.99,10.847-4.426,16.287
				c-1.254,4.767-3.422,9.102-6.045,13.242c-0.878,1.391-0.947,1.391-1.083,2.839c-0.046,0.411,0.148,0.674-0.434,0.696
				c-0.262,0.023-0.627,0.194-0.764,0.411c-1.141,1.802-2.269,3.604-3.33,5.451c-1.426,2.476-2.782,4.984-4.151,7.483
				c-0.32,0.57-0.502,1.232-0.867,1.757c-0.662,0.923-1.46,1.768-2.133,2.691c-0.594,0.799-0.354,1.484,0.638,1.7
				c1.073,0.228,2.19,0.388,2.988-0.49c0.581,0.468,1.106,1.232,1.619,1.232c0.833-0.011,1.323,0.365,1.859,0.923
				c0.605-0.764,1.129-1.437,1.813-2.292c0.046,0.468,0.115,0.638,0.069,0.775c-0.08,0.252-0.205,0.513-0.366,0.731
				c-2.19,3.102-4.277,6.284-6.626,9.262c-2.635,3.33-5.498,6.455-8.236,9.695c-0.251,0.296-0.24,0.798-0.307,1.026
				c-1.095,0.639-2.179,1.164-3.148,1.871c-1.289,0.946-2.464,2.042-3.707,3.033c-8.772,6.993-18.295,12.74-28.721,16.869
				c-12.991,5.156-26.495,7.984-40.467,8.521c-7.528,0.285-15.022-0.08-22.459-1.175c-6.057-0.89-12.011-2.327-17.839-4.209
				c-0.81-0.262-1.745-0.159-2.544-0.433c-0.867-0.296-1.608-0.912-2.464-1.265c-1.368-0.57-2.806-1.005-4.174-1.575
				c-4.676-1.938-9.307-4.014-13.641-6.672c-3.673-2.236-7.311-4.528-10.835-7.003c-4.551-3.206-8.828-6.787-12.843-10.665
				c-2.6-2.532-5.189-5.087-7.619-7.778c-2.236-2.498-4.243-5.202-6.193-7.608c-0.616-0.091-1.175-0.012-1.449-0.252
				c-0.605-0.525,0.228-0.923,0.308-1.357c-1.357-2.042-2.692-4.049-4.027-6.034c-0.741,0.228-0.867,0.205-1.266-0.263
				c0.274-0.137,0.548-0.285,0.81-0.422c-1.186-2.144-2.373-4.186-3.467-6.284c-1.06-2.053-2.087-4.14-3.045-6.25
				c-0.981-2.156-1.905-4.335-2.76-6.547c-0.822-2.168-1.563-4.368-2.247-6.582c-0.707-2.258-1.357-4.539-1.928-6.842
				c-0.547-2.248-0.958-4.529-1.449-6.798c-0.296-1.336-0.41-2.716-0.65-4.061c-0.148-0.935-0.365-1.847-0.741-2.737
				c-0.023,0.148-0.035,0.296-0.057,0.445c-0.046,0.32-0.08,0.639-0.114,0.958c-0.034,0.502-0.068,0.992-0.068,1.482
				c0,0.422,0.034,0.855,0.091,1.266c0.434,2.932,0.684,5.908,1.848,8.68c0.16,0.375-0.057,0.911-0.103,1.368
				c-1.3-3.707-1.985-7.493-2.566-11.223l-0.137-0.923c-0.057-0.365-0.114-0.73-0.171-1.095c0-0.012,0-0.012,0-0.012
				c-0.046-0.285-0.08-0.57-0.125-0.855h-5.646c0.012,0.194,0.034,0.376,0.046,0.559c0.057,0.73,0.102,1.369,0.148,2.007
				c-0.148-0.307-0.342-0.604-0.445-0.923c-0.057-0.171-0.102-0.342-0.136-0.525c-0.08-0.353-0.149-0.741-0.251-1.209
				c-1.152,0.182-2.201,0.308-3.205,0.525c-0.171,0.023-0.331,0.068-0.502,0.102c-1.871,0.433-3.73,0.992-5.601,1.414
				c-0.9,0.206-1.836,0.217-2.862,0.33c0.046,0.559,0.091,1.118,0.125,1.654c0.069,0.912,0.149,1.802,0.262,2.681
				c0.936,7.504,1.654,15.02,1.95,22.583c0.183,4.585,0.479,9.158,0.901,13.709c0.513,5.544,1.186,11.064,1.848,16.595
				c0.456,3.867,0.399,7.79,1.448,11.588c0.046,0.137,0.012,0.32-0.034,0.468c-0.582,1.791-0.205,3.593-0.126,5.394
				c0,0.069,0.149,0.137,0.251,0.228c0.137-0.205,0.262-0.41,0.411-0.627c1.061,2.042,1.049,2.042,1.232,4.061
				c0.08,0.821,0.205,1.642,0.319,2.452c0.445,0.148,0.844,0.274,1.289,0.422c0.308-0.661,1.06-0.969,1.083-1.939
				c0.023-1.026-0.662-1.391-1.346-1.905c0.935-1.129,0.981-2.27,0.924-3.616c-0.103-2.303-1.061-4.551-0.582-6.9
				c0.034-0.205-0.023-0.49-0.148-0.627c-0.833-0.925,0.479-2.429-0.878-3.206c-0.068-0.034-0.046-0.364,0.034-0.468
				c0.662-0.775,0.411-1.744,0.399-2.566c-0.023-2.064-0.422-4.117-0.422-6.182c0-3-0.57-5.999-0.102-9.01
				c0.365-2.396,0.639-4.802,0.981-7.198c0.046-0.342,0.183-0.684,0.354-1.3c0.285,0.49,0.445,0.707,0.536,0.936
				c3.125,7.504,6.992,14.621,10.927,21.717c3.353,6.033,6.661,12.09,10.801,17.633c1.278,1.711,2.874,3.193,4.391,4.721
				c0.776,0.786,1.654,0.719,2.292,0c0.742-0.844,1.449-0.89,2.27-0.148c0.491,0.445,0.935,0.947,1.482,1.323
				c0.65,0.444,1.369,0.627,2.008-0.172c-1.015-0.958-1.985-1.87-2.943-2.783c0.319-0.205,0.479-0.216,0.604-0.148
				c1.403,0.707,2.247,2.305,4.015,2.429c0.206,0.023,0.376,0.389,0.57,0.582c2.064,1.905,4.027,3.946,6.239,5.68
				c3.251,2.555,6.684,4.882,10.003,7.357c0.639,0.468,1.255,1.118,1.574,1.825c0.684,1.495,1.369,3.046,1.688,4.654
				c0.947,4.871,1.768,9.765,2.566,14.657c0.456,2.84,0.753,5.714,1.129,8.565c-0.046-8.109-1.061-16.115-2.247-24.124
				c0.399,0.992,0.73,1.985,0.855,3.012c0.433,3.491,0.81,7.004,1.209,10.506c0.331,2.954,0.673,5.908,0.981,8.862
				c0.091,0.798-0.114,1.653,0.479,2.35c-0.502,1.504,0.012,2.987,0.103,4.482c0.091,1.528,0.125,3.068,0.182,4.596
				c0,0.102-0.068,0.296-0.102,0.296c-0.992-0.022-0.525,0.697-0.502,1.096c0.057,1.426,0.217,2.852,0.262,4.277
				c0.114,3.97,0.183,7.937,0.308,11.907c0.069,1.882,0.217,3.754,0.319,5.623c0.377,6.672,0.719,13.346,1.164,20.007
				c0.08,1.207-0.068,2.531,0.65,3.682c0.741-0.011,1.243-0.114,1.722-0.751c0.628-0.811,0.787-1.633,0.764-2.591
				c-0.114-4.025-0.194-8.051-0.285-12.079c-0.136-5.736-0.285-11.475-0.433-17.211c-0.023-0.639-0.217-1.265-0.217-1.905
				c-0.023-1.586,0.034-3.17,0.046-4.756c0.034-2.406,0.057-4.814,0.068-7.231c0.011-0.811,0.262-1.78-0.08-2.406
				c-0.581-1.049-0.251-1.974-0.262-2.99c-0.011-0.809,0.605-1.608,0-2.508c-0.239-0.354-0.057-1.448,0.251-1.631
				c0.513-0.285,0.502-0.582,0.536-1.005c0.228-2.793,0.422-5.589,0.695-8.372c0.365-3.547,1.312-6.935,3.137-10.025
				c0.331-0.559,0.719-1.096,1.083-1.655c2.84,0.924,5.555,1.849,8.292,2.68c4.517,1.381,9.022,2.852,13.607,3.981
				c3.57,0.878,7.231,1.426,10.892,1.882c4.54,0.559,9.114,0.98,13.676,1.243c4.402,0.263,8.828,0.468,13.231,0.285
				c5.531-0.216,11.064-0.706,16.573-1.357c7.584-0.878,14.964-2.76,22.184-5.259c1.175-0.41,2.372-0.786,3.753-1.243
				c0.252,1.45,0.502,2.682,0.685,3.914c0.194,1.31,0.353,2.622,0.49,3.945c0.126,1.254,0.194,2.533,0.285,3.798
				c0.08,1.312,0.228,2.635,0.194,3.959c-0.046,1.129,0.594,2.11,0.274,3.353c-0.309,1.174,0.103,2.52,0.205,3.787h0.217v-2.475
				c0.183,0.227,0.228,0.443,0.216,0.661c-0.091,1.584-0.205,3.17-0.273,4.767c-0.034,0.651,0.022,1.323,0.068,1.974
				c0.035,0.468-0.068,0.855,0.514,1.265c0.729,0.512-0.696,0.947-0.433,1.631c0.011,0.058,0.022,0.114,0.033,0.16
				c0.24,3.776,0.457,7.55,0.72,11.314c0.181,2.52,0.41,5.03,0.616,7.527c1.585-0.033,1.779-0.125,1.779-1.152
				c0.011-2.522-0.023-5.041-0.046-7.563c-0.034-4.161-0.114-8.314-0.114-12.477c-0.012-3.832,0.022-7.688,0.114-11.519
				c0.035-1.677,0.126-3.377,0.457-5.019c0.24-1.221,0.17-2.315-0.274-3.284c0.296-0.274,0.684-0.468,0.764-0.742
				c0.388-1.426,0.958-2.876,0.958-4.302c0-1.207,0.444-2.085,0.901-3.056c0.309-0.626,0.662-1.254,0.856-1.916
				c0.616-2.099,1.974-3.376,3.935-4.288c4.711-2.19,9.17-4.86,13.287-8.03c1.871-1.449,3.707-2.966,5.407-4.62
				c2.02-1.962,2.065-3.535,0.457-6.056c-0.513,0.046-1.049,0.08-1.586,0.126c-0.079-0.148-0.159-0.285-0.239-0.422
				c0.32-0.217,0.685-0.376,0.97-0.627c2.155-1.894,4.312-3.787,6.456-5.692c0.525-0.468,1.38-0.958,1.437-1.506
				c0.091-0.958,0.936-0.651,1.334-1.084c1.552-1.676,3.444-3.045,5.041-4.687c2.555-2.658,5.087-5.361,7.414-8.212
				c2.795-3.467,5.429-7.061,8.017-10.687c1.78-2.498,3.729-4.915,4.87-7.836c0.31-0.764,0.902-1.415,1.473-2.292
				c0.216,0.479,0.388,0.719,0.432,0.969c0.343,2.065,0.686,4.129,0.982,6.194c0.25,1.699,0.365,3.41,0.695,5.075
				c0.183,0.959,0.797,1.815,1.016,2.76c0.922,4.083,2.029,8.121,2.589,12.285c0.65,4.813,1.642,9.569,2.508,14.349
				c0.127,0.662,0.423,1.3,0.651,1.962c1.473-0.194,1.564-1.197,1.564-2.121c-0.036-3.251-0.036-6.502-0.218-9.753
				c-0.454-8.109-0.421-16.219-0.125-24.329c0.183-4.904,0.343-9.809,0.57-14.713c0.136-3.034,0.263-6.068,0.617-9.079
				c0.41-3.445,1.036-6.867,1.606-10.3c0.617-3.684,1.165-7.402,1.974-11.052c0.399-1.848,0.593-3.684,0.593-5.532
				c0-1.54,0.218-3.022,0.595-4.482c0.432-1.7,1.299-3.285,1.207-5.11c-0.022-0.365-0.078-0.741,0-1.083
				c0.149-0.548,0.537-1.061,0.559-1.608c0.058-1.334,0.537-2.463,1.29-3.513c0.183-0.251,0.365-0.502,0.535-0.752
				c0.753-1.049,1.506-2.11,2.214-3.182C394.326,239.015,394.418,238.388,394.268,238.262z M139.246,225.443h0.102v1.129h-0.102
				V225.443z M152.727,211.117c0.057,0,0.126,0,0.194,0.011v6.935c-0.069-0.023-0.137-0.046-0.194-0.068V211.117z M150.115,198.159
				c-0.159-0.057-0.319-0.103-0.479-0.159c0.639-1.677,1.483-3.251,2.612-4.699C151.541,194.92,150.823,196.54,150.115,198.159z
				 M185.314,156.677c-0.433,0.41-0.89,0.821-1.346,1.22c-2.418,2.087-4.848,4.186-7.277,6.273
				c-0.148,0.125-0.342,0.228-0.513,0.342c2.293-3.753,5.771-6.273,8.783-9.307C185.691,155.741,185.873,156.152,185.314,156.677z
				 M277.953,135.986c-0.49-0.023-0.958-0.046-1.46-0.068c0.48-0.034,0.97-0.068,1.46-0.114V135.986z M277.782,128.071
				c0.022-0.103,0.046-0.205,0.068-0.308c0.696,0.16,1.38,0.319,2.076,0.467c-0.023,0.091-0.035,0.172-0.058,0.263
				C279.173,128.344,278.477,128.208,277.782,128.071z M279.47,136.272v-0.091h1.049c0.011,0.034,0.011,0.068,0.011,0.091H279.47z
				 M306.615,154.042c-0.011-0.046-0.057-0.091-0.057-0.137c-0.011-0.41,0-0.821,0-1.232c0.034-0.011,0.069-0.011,0.102-0.011
				c0.023,0.422,0.057,0.844,0.08,1.22C306.684,153.962,306.65,154.008,306.615,154.042z M307.003,156.677h-0.068v-0.73h0.068
				V156.677z M307.346,159.881c-0.023,0-0.058,0-0.08,0.012c-0.023-0.308-0.046-0.616-0.068-0.924c0.057,0,0.103-0.011,0.148-0.023
				V159.881z M307.664,164.068h-0.079v-1.38h0.079V164.068z M308.212,172.28c0.022-0.308,0.034-0.627,0.057-0.947
				c0.023,0.32,0.057,0.628,0.091,0.947H308.212z M333.465,158.08c-0.183-0.183-0.377-0.354-0.559-0.536
				c0.035-0.046,0.08-0.091,0.126-0.125c0.183,0.171,0.377,0.342,0.57,0.525L333.465,158.08z M333.819,157.201
				c-0.707-0.616-1.426-1.221-2.133-1.837c0.057-0.068,0.114-0.125,0.171-0.194c0.731,0.582,1.46,1.163,2.19,1.757
				C333.967,157.019,333.887,157.11,333.819,157.201z M337.993,162.231c-0.172-0.205-0.354-0.41-0.537-0.604
				c0.115-0.103,0.228-0.206,0.342-0.308c0.172,0.206,0.343,0.411,0.513,0.616C338.21,162.037,338.096,162.14,337.993,162.231z
				 M351.668,199.027c0.08,0.011,0.148,0.023,0.228,0.034c-0.035,0.331-0.08,0.662-0.114,0.993h-0.115V199.027z M350.756,194.806
				c0.034,0.764,0.057,1.163,0.069,1.563c-0.091-0.011-0.183-0.011-0.285-0.011C350.597,195.958,350.654,195.559,350.756,194.806z
				 M348.27,174.094c0.079,0.239,0.159,0.467,0.239,0.707c-0.08,0.034-0.172,0.068-0.251,0.103c-0.091-0.24-0.183-0.468-0.263-0.707
				C348.087,174.161,348.178,174.127,348.27,174.094z M347.528,219.819c-0.057,0-0.114,0-0.17,0.011v-4.699
				c0.057,0,0.114-0.012,0.17-0.012V219.819z M347.756,225.818h-0.159v-4.505h0.159V225.818z M348.349,216.876v-1.471
				c0.149,0.285,0.274,0.422,0.263,0.547C348.601,216.26,348.52,216.568,348.349,216.876z M350.688,216.683
				c0.079-0.799,0.159-1.608,0.251-2.407c0.102,0,0.194,0.011,0.296,0.011c-0.17,3.376-0.331,6.741-0.49,10.105h-0.091v-6.923
				c-0.091-0.023-0.194-0.046-0.285-0.068c-0.069,0.376-0.159,0.753-0.205,1.129c-0.046,0.376-0.046,0.753-0.343,1.163
				c-0.068-0.901-0.182-1.791-0.194-2.692c-0.022-1.015,0.058-2.042,0.08-3.068c0.022-0.981,0.32-2.076-0.022-2.92
				c-0.023-0.057-0.046-0.114-0.046-0.171c-0.263-0.981,0.66-1.609,0.285-2.487c0.125,0.012,0.24,0.012,0.353,0.023v8.281
				C350.414,216.671,350.551,216.683,350.688,216.683z M358.078,186.126c-0.091-0.308-0.17-0.616-0.262-0.924
				c0.068-0.023,0.137-0.046,0.205-0.08c0.148,0.285,0.296,0.581,0.433,0.867C358.329,186.035,358.204,186.081,358.078,186.126z
				 M138.938,261.975c0.023,0.034,0.069,0.069,0.069,0.103v0.799c0,0.011-0.069,0.022-0.114,0.033
				c-0.011-0.262-0.023-0.535-0.023-0.798C138.87,262.066,138.915,262.021,138.938,261.975z M125.045,296.739
				c-0.034-0.285-0.068-0.57-0.091-0.855c0.046-0.011,0.103-0.035,0.148-0.046C125.08,296.135,125.068,296.443,125.045,296.739z
				 M125.388,301.37h-0.091v-2.612h0.091V301.37z M127.259,320.885c-0.616-5.919-1.232-11.85-1.848-17.77
				c0.103-0.011,0.217-0.022,0.331-0.035c0.707,5.92,1.54,11.828,1.893,17.783C127.509,320.863,127.384,320.874,127.259,320.885z
				 M133.212,297.504c-0.137-0.353-0.285-0.696-0.422-1.049c0.068-0.022,0.137-0.057,0.194-0.08
				c0.148,0.343,0.296,0.696,0.444,1.038C133.349,297.447,133.281,297.481,133.212,297.504z M134.604,264.621v-1.311
				c0.034,0.353,0.069,0.718,0.114,1.072c0,0.08,0.012,0.148,0.023,0.228C134.695,264.609,134.65,264.621,134.604,264.621z
				 M142.736,317.429c-1.426-2.155-2.863-4.311-3.605-7.22c1.335,1.107,1.54,2.521,2.213,3.639c0.65,1.106,1.152,2.292,1.734,3.444
				C142.965,317.338,142.85,317.384,142.736,317.429z M167.898,343.013c-0.433-0.365-0.878-0.718-1.312-1.084
				c0.08-0.103,0.159-0.205,0.24-0.296c0.456,0.353,0.912,0.707,1.368,1.06C168.091,342.807,167.989,342.911,167.898,343.013z
				 M195.34,394.477c-0.262-0.401-0.365-0.492-0.365-0.57c0.057-0.446,0.137-0.891,0.217-1.337c0.149,0.024,0.297,0.047,0.445,0.069
				C195.557,393.165,195.465,393.689,195.34,394.477z M235.397,374.174c-1.95-0.194-3.923-0.285-5.828-0.695
				c-2.84-0.617-5.634-1.461-8.44-2.225c-0.799-0.205-1.597-0.399-2.372-0.673c-0.251-0.08-0.422-0.354-0.616-0.559
				c-0.034-0.011-0.069-0.011-0.103-0.022c-0.114-0.033-0.217-0.08-0.331-0.114c-0.867-0.149-1.734-0.296-2.589-0.501
				c-0.867-0.218-1.7-0.537-2.555-0.822c-0.045,0.011-0.08,0.022-0.125,0.022c0.012-0.022,0.012-0.045,0.012-0.056
				c-2.669-0.891-5.315-1.791-7.973-2.704c0.035-0.102,0.068-0.216,0.091-0.319c0.41,0.067,0.832,0.103,1.22,0.227
				c2.019,0.673,4.038,1.37,6.045,2.065c0.354,0.125,0.719,0.238,0.616,0.731c0.011,0,0.034,0.011,0.046,0.011
				c0.023,0.011,0.046,0.011,0.068,0.022c0.285-0.058,0.582-0.183,0.822-0.114c1.449,0.443,2.885,0.947,4.323,1.437
				c0.125,0.022,0.239,0.045,0.365,0.069c0.023,0.022,0.046,0.045,0.069,0.067c2.053,0.479,4.095,0.993,6.159,1.404
				c3.889,0.775,7.779,1.495,11.668,2.237c0.149,0.022,0.297,0.114,0.707,0.272C236.081,374.061,235.728,374.208,235.397,374.174z
				 M237.906,374.254c0.012-0.08,0.012-0.149,0.023-0.229c1.916,0.16,3.832,0.321,5.737,0.468c0.012,0.102,0.023,0.194,0.035,0.296
				C241.773,374.607,239.834,374.437,237.906,374.254z M300.331,369.213c-0.605,0.25-1.243,0.457-1.882,0.615
				c-5.12,1.323-10.242,2.602-15.352,3.936c-3.866,1.014-7.813,1.127-11.759,1.401c-2.943,0.194-5.897,0.446-8.851,0.537
				c-2.235,0.069-4.495-0.058-6.73-0.16c-3.285-0.136-6.569-0.33-9.843-0.501c-0.354-0.022-0.696-0.114-1.049-0.172
				c0.011-0.114,0.023-0.238,0.034-0.365c9.65,0.628,19.276,0.742,28.892-0.341c9.615-1.085,18.99-3.183,28.32-5.816
				C301.517,368.643,300.947,368.961,300.331,369.213z M310.037,371.962c-0.878-1.918-0.307-3.97,1.46-4.756
				C310.973,368.939,310.528,370.387,310.037,371.962z M311.212,364.832c-0.057-0.103-0.114-0.217-0.183-0.32
				c0.616-0.353,1.232-0.707,1.837-1.049c0.079,0.103,0.148,0.205,0.228,0.32C312.66,364.49,312.022,364.809,311.212,364.832z
				 M333.225,347.94c0.069,0.104,0.126,0.206,0.194,0.309c-0.342,0.274-0.695,0.559-1.038,0.832
				c-0.068-0.068-0.125-0.148-0.194-0.216C332.53,348.556,332.883,348.248,333.225,347.94z M317.303,361.513
				c0.411-0.309,0.799-0.673,1.255-0.901c5.075-2.566,9.98-5.407,14.428-8.999c0.32-0.263,0.719-0.422,1.221-0.707
				C332.598,354.043,320.439,360.84,317.303,361.513z M386.774,209.862c1.506,5.338,3.627,16.869,2.887,19.983
				c-1.118-6.673-2.248-13.402-3.355-19.972c-0.147-0.855-0.296-1.699-0.432-2.544C386.113,207.729,386.423,208.63,386.774,209.862z
				 M381.437,221.382c-0.421-2.247-0.844-4.494-1.265-6.753C381.083,216.785,381.62,219.021,381.437,221.382z M383.627,197.874
				c0.08,0.502,0.171,1.004,0.252,1.506c-0.114,0.023-0.229,0.046-0.332,0.068c-0.091-0.502-0.172-1.004-0.25-1.517
				C383.411,197.909,383.513,197.886,383.627,197.874z M381.484,192.525c-0.194-0.456-0.365-0.889-0.662-1.608
				C382.373,191.863,382.373,191.863,381.484,192.525z M371.925,252.474h-0.058v-0.901h0.058V252.474z M347.63,263.526
				c0,1.745,0.217,3.491,0.788,5.145c1.802-0.035,2.646-0.81,2.726-2.59c0.309-7.892,0.627-15.785,0.912-23.678
				c0-0.148,0.012-0.296,0.012-0.444c0.125-3.798,0.125-7.608,0.251-11.417c0.035-1.152,0.091-2.304,0.172-3.445
				c-1.791,0.217-3.582,0.445-5.372,0.661c0.148,4.939,0.307,9.889,0.421,14.839c0.035,1.392,0.058,2.795,0.08,4.198
				C347.711,252.372,347.597,257.949,347.63,263.526z M350.368,227.86h0.011v0.947h-0.011V227.86z M347.859,230.29
				c0.069,0,0.126-0.012,0.194-0.012c0.115,4.106,0.24,8.201,0.354,12.295c0.046,1.597,0.091,3.182,0.137,4.768
				c-0.08,0.012-0.16,0.012-0.241,0.012c-0.045-1.597-0.079-3.194-0.125-4.779C348.076,238.479,347.961,234.385,347.859,230.29z
				 M155.91,234.145c-1.346,0.057-2.68,0.102-4.026,0.148c0.148,3.718,0.354,7.437,0.433,11.155c0.012,0.32,0.012,0.65,0.012,0.97
				c1.141-0.194,2.281-0.377,3.422-0.559c-0.012-0.388-0.012-0.787-0.012-1.175c-0.023-3.091-0.034-6.17,0.102-9.25
				C155.864,235,155.887,234.578,155.91,234.145z"/>
			<path style="fill-rule:evenodd;clip-rule:evenodd;" d="M331.272,160.109c0.551,0.64,1.104,1.28,1.655,1.92
				c-0.044,0.063-0.094,0.121-0.149,0.174c-0.757,0.296-1.206-0.274-1.709-0.638c-0.393-0.286-0.732-0.648-1.095-0.976l-0.018,0.046
				C330.396,160.459,330.834,160.284,331.272,160.109z"/>
			<path style="fill-rule:evenodd;clip-rule:evenodd;" d="M332.778,162.202c0.056-0.053,0.106-0.111,0.149-0.174
				c0.812,0.287,1.658,0.523,2.049,1.418c-0.509-0.168-1.045-0.285-1.518-0.523C333.182,162.784,333.002,162.449,332.778,162.202z"
				/>
			<path style="fill-rule:evenodd;clip-rule:evenodd;" d="M334.936,163.742c0.567,0.058,1.134,0.116,1.701,0.174
				c0.064,0.244,0.128,0.488,0.224,0.854C336.013,164.683,335.425,164.313,334.936,163.742z"/>
			<path style="fill-rule:evenodd;clip-rule:evenodd;" d="M193.034,396.271c0,0.258,0,0.515,0,0.773
				c-0.088-0.002-0.176-0.004-0.264-0.007c0.012-0.261,0.026-0.521,0.039-0.782C192.883,396.26,192.959,396.264,193.034,396.271z"/>
		</g>
		<g>
			<path style="fill-rule:evenodd;clip-rule:evenodd;" d="M420.992,219.158c-3.125-2.84-6.694-5.03-10.321-7.14
				c-1.187-0.696-2.372-1.426-3.422-2.304c-2.372-1.973-3.673-2.19-6.273-0.639c-0.811,0.479-1.597,0.707-2.499,0.695
				c-2.257-0.023-4.527-0.102-6.786-0.046c-1.243,0.035-2.475,0.068-3.718,0.102c-0.399,0.012-0.8,0.023-1.199,0.035
				c-0.158,0-0.307,0.011-0.468,0.011c-4.219,0.126-8.439,0.262-12.66,0.376c-2.702,0.068-5.407,0.125-8.109,0.183
				c-4.129,0.102-8.258,0.194-12.387,0.308c-0.958,0.023-1.916,0.057-2.874,0.091c-0.217,0-0.422,0-0.638,0.011
				c-0.605,0.023-1.199,0.034-1.802,0.057c-0.422,0.011-0.833,0.022-1.255,0.045c-4.756,0.171-9.512,0.491-14.257,0.776
				c-4.791,0.285-9.58,0.57-14.371,0.935c-4.038,0.297-8.064,0.639-12.091,1.027c-0.752,0.069-1.505,0.137-2.258,0.217
				c-4.232,0.411-8.441,1.083-12.672,1.391c-1.563,0.114-3.113,0.217-4.676,0.297c-0.205,0.023-0.4,0.034-0.605,0.034
				c-3.467,0.205-6.935,0.354-10.402,0.525c-1.22,0.068-2.441,0.126-3.661,0.194c-4.14,0.228-8.269,0.457-12.399,0.799
				c-6.82,0.559-13.63,1.197-20.438,1.836c-5.11,0.48-10.22,1.004-15.318,1.529c-2.589,0.262-5.178,0.559-7.767,0.844
				c-3.011,0.331-6.022,0.639-9.033,0.844c-6.889,0.467-13.778,0.867-20.667,1.255c-4.573,0.262-9.136,0.525-13.698,0.798
				c-3.581,0.228-7.14,0.57-10.722,0.867c-1.688,0.136-3.364,0.376-5.041,0.616c-1.517,0.217-3.023,0.422-4.551,0.558
				c-0.08,0.012-0.16,0.012-0.24,0.023c-1.86,0.171-3.719,0.399-5.566,0.65c-0.946,0.126-1.893,0.262-2.829,0.399
				c-0.239,0.035-0.479,0.068-0.707,0.102c-0.308,0.046-0.616,0.091-0.913,0.137c-0.285,0.035-0.57,0.08-0.855,0.126
				c-0.559,0.08-1.129,0.159-1.688,0.239c-4.733,0.661-9.456,1.414-14.189,2.087c-0.456,0.069-0.901,0.126-1.357,0.194
				c-0.057,0.011-0.114,0.011-0.171,0.023c-5.018,0.696-10.06,1.289-15.136,1.585c-2.566,0.16-4.962,1.175-7.539,1.243
				c-1.152,0.023-2.316,0.194-3.434,0.456c-2.338,0.547-3.638,2.099-3.867,4.482c-0.205,2.202-0.342,4.403-0.604,6.593
				c-0.308,2.6-0.32,5.178,0.114,7.756c0.513,3,0.741,6.011,0.639,9.056c-0.057,1.54-0.023,3.103,0.125,4.631
				c0.65,6.489,1.334,12.956,2.042,19.435c0.57,5.155,1.106,10.311,1.118,15.512c0,4.642,0.262,9.273,0.422,13.904
				c0.023,0.661-0.023,1.3,0.752,1.688c0.274,0.137,0.422,0.707,0.468,1.106c0.16,1.426,0.183,2.864,0.377,4.277
				c0.217,1.689,0.376,3.399,1.22,4.906c1.894-0.023,2.304-0.662,1.631-2.248c-0.331-0.799-0.57-1.688-0.628-2.543
				c-0.342-6.012-0.752-12.011-0.901-18.021c-0.148-5.909,0-11.817-0.023-17.725c-0.011-2.772,0.297-5.509,0.924-8.201
				c0.114-0.479,0.217-1.117,0.547-1.334c0.821-0.514,0.958-1.3,1.198-2.076c1.631-5.246,4.744-9.193,9.945-11.246
				c0.787-0.309,1.791-0.57,2.544-0.354c2.087,0.651,4.197,1.118,6.342,1.369c1.255,0.148,2.509,0.217,3.787,0.194
				c0.912-0.022,1.734,0.217,2.589,0.354c1.357,0.228,2.224-0.947,3.422-1.129c-0.114-0.274-0.308-0.536-0.331-0.821
				c-0.035-0.65,0.354-0.525,0.718-0.342c-0.125,0.388-0.251,0.775-0.376,1.174c0.81,0.057,1.654-0.011,2.406,0.217
				c0.274,0.079,0.491,0.148,0.673,0.194c0.046,0.011,0.08,0.011,0.114,0.022c0.57,0.104,0.81-0.057,1.426-0.707
				c0.342-0.364,0.765-0.649,1.152-0.98c-0.308-0.365-0.673-0.787-1.026-1.209c-0.012-0.011-0.023-0.023-0.035-0.034v0.046
				c-0.445-0.844-1.197-0.399-1.676-0.513c-0.046,0.057-0.08,0.114-0.114,0.16c-0.148,0.194-0.285,0.376-0.433,0.559
				c-0.171,0.251-0.354,0.491-0.548,0.753c-0.251-0.821-0.878-1.414-1.597-1.072c-0.752,0.365-1.049,0.057-1.312-0.365
				c-0.046-0.08-0.091-0.16-0.136-0.24c-1.483,0.365-4.049,0.091-5.133-0.57c0.388-0.103,0.684-0.194,0.992-0.251
				c3.798-0.684,7.585-1.403,11.383-2.019c2.92-0.468,5.794-1.186,8.783-1.278c1.961-0.057,3.923-0.148,5.885-0.251
				c1.174-0.069,2.349-0.126,3.524-0.183c0.73-0.046,1.449-0.08,2.167-0.114c0.616-0.023,1.232,0,1.848,0
				c0,0.103,0.011,0.206,0.023,0.32c-1.334,0.331-2.669,0.662-4.015,0.992c-0.32,0.08-0.639,0.16-0.958,0.24
				c0.102,0.228,0.217,0.525,0.399,0.946c-0.456-0.102-0.718-0.205-0.981-0.228c-0.662-0.057-1.551-0.354-1.984-0.08
				c-0.023,0.012-0.035,0.023-0.057,0.035c-0.707,0.547-1.277,0.57-1.996,0.137c-0.319,0.969-0.582,1.768-0.878,2.703
				c0.41,0.195,0.799,0.536,1.152,0.514c0.627-0.046,1.243-0.114,1.859-0.194c0.604-0.091,1.209-0.194,1.813-0.297
				c0.559-0.091,1.118-0.217,1.677-0.342c0.445-0.103,0.889-0.217,1.345-0.308c0.422-0.08,0.855-0.125,1.278-0.171
				c0.844-0.08,1.848-0.479,2.475-0.16c1.312,0.685,2.031,0.012,2.795-0.73c0.514,0.16,1.346,0.023,2.156-0.011
				c0.673-0.035,1.323-0.57,2.053-0.125c0.171,0.103,0.514-0.08,0.741-0.137c0.114-0.422,0.205-0.776,0.308-1.163
				c0.365-0.012,0.639-0.069,0.901-0.023c0.183,0.034,0.331,0.273,0.514,0.319c0.673,0.149,1.357,0.251,2.042,0.376
				c0.194-0.342,0.388-0.525,0.593-0.593c0.547-0.217,1.141,0.32,1.676,0.491c0.524-0.456,1.003-0.867,1.563-1.346
				c0.217,0.536,0.354,0.867,0.525,1.255c0.639-0.171,1.209-0.399,1.779-0.456c3.045-0.297,6.102-0.479,9.136-0.844
				c5.03-0.616,10.049-1.312,15.056-2.019c0.137-0.023,0.274-0.034,0.41-0.057c7.129-1.004,14.257-2.053,21.386-3.045
				c3.764-0.525,7.54-1.003,11.314-1.449c4.699-0.559,9.399-1.061,14.098-1.585c2.406-0.262,4.813-0.593,7.219-0.81
				c3.674-0.319,7.358-0.491,11.019-0.867c1.426-0.149,2.338,0.239,2.863,1.562c0.24,0.616,0.605,1.209,0.718,1.837
				c0.411,2.167,0.913,4.334,1.05,6.524c0.216,3.524,0.239,7.06,0.227,10.596c-0.022,12.637-0.251,25.287,0.376,37.924
				c0.034,0.821,0.08,1.631,0.126,2.578c0.605,0,1.141,0.114,1.597-0.023c1.095-0.319,1.448-1.152,1.437-2.269
				c-0.011-3.308,0.011-6.616,0.102-9.923c0.159-5.635,0.342-11.258,0.582-16.88c0.194-4.734,0.445-9.467,0.742-14.189
				c0.091-1.528,0.376-3.045,0.649-4.551c0.502-2.68,1.084-5.349,1.621-8.03c0.068-0.376,0.17-0.787,0.079-1.141
				c-0.079-0.262-0.444-0.444-0.741-0.73c0.251-0.194,0.41-0.422,0.582-0.422c1.323-0.034,1.859-0.696,1.996-2.007
				c0.148-1.426,1.004-2.087,2.44-2.19c0.821-0.057,1.643-0.114,2.464-0.159c2.76-0.172,5.531-0.308,8.28-0.593
				c0.753-0.08,1.506-0.091,2.27-0.126c0.114-0.011,0.24-0.011,0.353-0.011c1.426-0.069,2.851-0.205,4.198-0.844
				c0.125-0.057,0.353-0.057,0.456,0.012c1.107,0.798,1.917-0.217,2.453-0.354c0.992,0.194,1.608,0.399,2.224,0.411
				c1.209,0.035,2.429-0.011,3.638-0.08c2.579-0.137,5.156-0.285,7.734-0.433c2.771-0.16,5.531-0.32,8.304-0.468
				c3.855-0.217,7.71-0.456,11.565-0.616c2.954-0.114,5.908-0.137,8.851-0.206c0.217,0,0.422-0.011,0.639-0.023
				c0.08,0.012,0.148,0,0.228,0c0.285,0,0.558-0.011,0.843-0.022c0.936-0.035,1.871-0.091,2.806-0.149
				c1.54-0.102,3.08-0.217,4.608-0.217c2.909,0,5.829,0.32,8.736,0.331c2.021,0,4.05-0.023,6.068-0.046
				c4.438-0.046,8.862-0.125,13.299-0.091c2.384,0.012,4.767,0.046,7.162,0.08c5.121,0.091,10.243,0.205,15.364,0.296
				c1.199,0.012,2.406,0,3.673,0c0.183,0.605,0.365,1.072,0.443,1.54c0.354,2.406,0.833,4.802,0.982,7.208
				c0.285,4.414,0.377,8.828,0.535,13.242c0.16,4.46,0.299,8.931,0.468,13.391c0.058,1.471,0.16,2.942,0.559,4.231
				c1.107,0.433,1.838,0.046,2.669-0.343c0.902-0.421,1.199-1.026,1.254-1.905c0.105-1.927,0.241-3.844,0.321-5.771
				c0.172-3.798,0.274-7.596,0.468-11.395c0.114-2.246,0.399-4.493,0.49-6.752c0.238-5.623,0.639-11.235,1.562-16.778
				c0.731-4.346,1.633-8.669,2.397-13.003C423.605,223.674,423.159,221.142,420.992,219.158z M96.291,238.296
				c-0.285-0.399-0.639-0.661-0.639-0.923c0.012-0.707,0.502-1.015,1.312-1.061C96.748,236.939,96.565,237.498,96.291,238.296z
				 M100.706,235.993c-0.673,0.296-1.232,1.072-2.03,1.483c-0.251-0.171-0.514-0.354-0.855-0.593
				c0.433-0.525,1.06-0.981,0.399-1.688c-0.057-0.069,0.149-0.502,0.32-0.662c0.65-0.616,1.197-0.935,1.471-0.855
				c0.673,0.194,1.346,0.422,2.03,0.639C101.698,234.955,101.573,235.605,100.706,235.993z M102.804,240.121
				c-0.045-0.103-0.08-0.205-0.125-0.296c0.285-0.125,0.57-0.251,0.855-0.377c0.034,0.114,0.08,0.217,0.114,0.331
				C103.363,239.894,103.089,240.007,102.804,240.121z M157.153,258.405c-0.034-0.091-0.057-0.183-0.08-0.274
				c0.628-0.228,1.255-0.456,1.882-0.685c0.023,0.16,0.057,0.308,0.091,0.457C158.419,258.074,157.78,258.234,157.153,258.405z
				 M183.98,228.796c0.136-0.035,0.285-0.08,0.445-0.114c-0.285,0.296-0.411,0.433-0.582,0.456c-0.16,0.034-0.342-0.034-0.695-0.148
				C183.432,228.921,183.683,228.864,183.98,228.796z M151.849,233.517c1.369-0.125,2.749-0.262,4.118-0.399
				c0.114-0.012,0.217-0.023,0.331-0.035c4.482-0.456,8.953-1.004,13.436-1.472c1.038-0.102,2.099-0.011,3.137-0.102
				c2.509-0.228,5.018-0.525,7.539-0.764c0.81-0.068,1.654,0.034,2.453-0.08c0.148-0.023,0.296-0.057,0.456-0.114
				c0.581-0.194,1.174-0.536,1.653-0.411c0.742,0.194,1.392,0.194,2.099,0.126c3.068-0.274,6.147-0.525,9.216-0.821
				c5.418-0.513,10.836-1.107,16.253-1.574c0.296-0.023,0.592-0.046,0.889-0.068c3.114-0.251,6.239-0.388,9.353-0.57
				c6.444-0.365,12.888-0.707,19.333-1.084c1.642-0.091,3.274-0.24,4.905-0.354c0,0.114,0.011,0.24,0.023,0.365
				c-3.878,0.467-7.745,0.992-11.634,1.38c-7.551,0.741-15.102,1.449-22.663,2.156c-2.042,0.194-4.094,0.388-6.136,0.582
				c-7.528,0.718-15.044,1.517-22.572,2.144c-0.491,0.035-0.97,0.08-1.46,0.114c-6.228,0.491-12.467,0.89-18.694,1.255
				c-2.658,0.148-5.315,0.262-7.973,0.354c-1.346,0.057-2.68,0.102-4.026,0.148c-1.289,0.046-2.589,0.091-3.878,0.137
				c-1.266,0.046-2.521,0-3.787-0.217C146.762,233.974,149.306,233.757,151.849,233.517z M274.063,258.086h-0.114v-1.905h0.114
				V258.086z M362.548,225.83c-0.604-0.035-1.196-0.068-1.801-0.102c-0.376,0.159-0.73,0.433-1.117,0.479
				c-2.384,0.296-4.756,0.593-7.14,0.889c-1.791,0.217-3.582,0.445-5.372,0.661c-3.228,0.388-6.445,0.776-9.673,1.163
				c-6.022,0.718-12.056,1.437-18.09,2.087c-1.95,0.205-3.912,0.399-5.873,0.593c-3.148,0.308-6.297,0.604-9.444,0.924
				c-3.559,0.365-7.117,0.741-10.664,1.129c-0.115,0-0.228,0.023-0.331,0.034c-2.099,0.217-4.198,0.445-6.297,0.661
				c-1.254,0.137-2.509,0.262-3.764,0.388c-2.749,0.296-5.498,0.581-8.247,0.867c-6.136,0.65-12.272,1.289-18.409,1.95
				c-3.444,0.365-6.889,0.753-10.334,1.141c-2.361,0.262-4.722,0.547-7.083,0.799c-3.171,0.354-6.353,0.639-9.535,1.026
				c-2.874,0.342-5.737,0.855-8.611,1.197c-2.795,0.32-5.589,0.502-8.383,0.776c-1.471,0.137-2.955,0.285-4.425,0.433
				c-5.612,0.559-11.212,1.141-16.835,1.665c-4.471,0.411-8.965,0.707-13.436,1.084c-0.365,0.034-0.719,0.057-1.084,0.091
				c-6.946,0.604-13.904,1.209-20.838,1.859c-0.034,0-0.068,0.012-0.102,0.012c-1.107,0.103-2.202,0.205-3.308,0.319
				c-3.673,0.342-7.346,0.718-11.007,1.152c-5.212,0.593-10.322,1.768-15.386,3.114c-1.871,0.502-3.753,0.923-5.623,1.357
				c-0.354,0.091-0.73,0.057-1.118-0.012c1.209-0.41,2.35-0.81,3.308-1.757c0.468-0.467,1.437-0.479,2.19-0.616
				c7.596-1.345,15.192-2.737,22.8-3.992c1.608-0.262,3.205-0.525,4.813-0.787c1.141-0.194,2.281-0.377,3.422-0.559
				c5.703-0.924,11.406-1.802,17.12-2.589c1.973-0.274,3.958-0.479,5.942-0.662c3.125-0.285,6.262-0.491,9.387-0.81
				c6.992-0.696,13.984-1.438,20.964-2.167c0.206-0.023,0.399-0.046,0.605-0.069c2.121-0.228,4.254-0.479,6.376-0.81
				c0.73-0.114,1.426-0.514,2.293-0.833c1.323,0.878,2.84,0.023,4.346-0.012c1.346-0.034,2.692-0.456,4.026-0.73
				c0.354-0.068,0.685-0.217,1.015-0.33c0.354-0.126,0.718-0.388,1.06-0.377c2.122,0.08,4.198-0.172,6.285-0.536
				c2.053-0.365,4.106-0.73,6.25-0.479c1.129,0.137,2.338-0.228,3.501-0.433c1.038-0.183,2.236,0.217,3.091-0.741
				c1.266,0.821,2.498-0.822,3.89,0c0.536,0.319,1.574-0.331,2.361-0.274c1.95,0.148,3.877-0.194,5.828-0.206
				c2.281-0.011,4.551-0.319,6.832-0.365c2.601-0.046,5.144-0.673,7.768-0.662c2.452,0.012,4.892-0.217,7.345-0.422
				c0.183-0.023,0.376-0.046,0.559-0.057c3.171-0.262,6.341-0.593,9.512-0.889c0.126-0.012,0.251-0.023,0.365-0.035
				c0.775-0.08,1.539-0.148,2.315-0.217c5.931-0.524,11.862-1.061,17.794-1.551h0.046c7.311-0.593,14.61-1.118,21.911-1.711
				c4.186-0.331,8.372-0.684,12.546-1.038c1.824-0.148,3.638-0.308,5.452-0.456c1.813-0.16,3.616-0.308,5.418-0.456
				c0.935-0.08,1.87-0.149,2.794-0.217c0.605-0.035,1.209-0.057,1.801-0.091V225.83z M414.298,277.282
				c-0.114-5.6-0.241-11.201-0.354-16.801c0.114-0.011,0.241-0.011,0.354-0.011c0.147,5.589,0.307,11.177,0.457,16.766
				C414.605,277.258,414.456,277.269,414.298,277.282z M419.624,229.252h-0.252c0.047-0.479,0.091-0.947,0.138-1.415
				c0-0.057-0.011-0.102-0.011-0.159c0.022-0.057,0.045-0.103,0.067-0.16c0.08-0.422,0.16-0.822,0.241-1.22
				c0.067,0.022,0.147,0.057,0.216,0.08c-0.149,0.377-0.307,0.764-0.457,1.141c-0.022,0.068-0.033,0.137-0.045,0.205
				c0,0.034-0.011,0.08-0.011,0.114C419.555,228.305,419.577,228.784,419.624,229.252z"/>
			<path style="fill-rule:evenodd;clip-rule:evenodd;" d="M148.735,261.542c-0.319,0.866-1.254,0.707-1.984,0.661
				c-0.696-0.046-1.688,0.57-2.087-1.061c-0.433,1.54-1.46,1.779-2.475,2.087c-0.285,0.08-0.582,0.172-0.855,0.296
				c-0.046-0.046-0.08-0.103-0.125-0.148c-0.149-0.183-0.297-0.376-0.445-0.559c-0.114-0.182-0.228-0.364-0.377-0.604
				c0.319-0.125,0.582-0.217,0.89-0.319c0.035-0.023,0.068-0.034,0.114-0.046v-1.916h2.92c0.125,0.376,0.24,0.718,0.343,1.026
				c1.254,0.023,0.387-1.095,1.06-1.585c0.32,0.502,0.605,0.981,0.958,1.539c0.182-0.046,0.49-0.114,0.718-0.171
				c0.046-0.627,0.046-1.209,0.159-1.757c0.012-0.091,0.468-0.102,0.753-0.148C148.45,259.751,148.576,260.572,148.735,261.542z"/>
			<path style="fill-rule:evenodd;clip-rule:evenodd;" d="M136.235,261.451c0.023,0.011,0.046,0.023,0.069,0.023
				c-0.011,0.011-0.023,0.011-0.034,0.011c-0.012,0-0.023,0.012-0.035,0.012V261.451z"/>
			<path style="fill-rule:evenodd;clip-rule:evenodd;" d="M140.341,262.545c0.125,0.091,0.251,0.171,0.376,0.251
				c-0.068,0.239-0.102,0.502-0.239,0.673c-0.102,0.126-0.251,0.194-0.502,0.183c-0.89-0.046-1.7,0.057-2.281,0.867
				c-0.114,0.16-0.491,0.126-0.799,0.183c0.479-0.855,0.924-1.642,1.369-2.441c-0.753-0.308-1.357-0.536-1.962-0.787
				c0.297-0.069,0.764-0.102,0.81-0.262c0.091-0.285,0.206-0.491,0.354-0.628c0.513-0.502,1.323-0.182,1.962-0.285
				c0.296-0.046,0.798,0.217,0.947,0.48c0.08,0.137-0.069,0.399-0.205,0.661c0,0,0,0,0,0.012c-0.046,0.091-0.091,0.183-0.125,0.262
				c-0.057,0.137-0.149,0.273-0.251,0.479C139.987,262.317,140.17,262.431,140.341,262.545z"/>
			<path style="fill-rule:evenodd;clip-rule:evenodd;" d="M140.729,262.796h-0.011c0-0.011,0-0.011,0-0.022
				C140.717,262.774,140.729,262.785,140.729,262.796z"/>
		</g>
		<g>
			<path style="fill-rule:evenodd;clip-rule:evenodd;" d="M206.609,230.278c-7.528,0.718-15.044,1.517-22.572,2.144
				c-0.491,0.035-0.97,0.08-1.46,0.114c-1.255,3.353-2.51,6.718-3.764,10.071c3.125-0.285,6.262-0.491,9.387-0.81
				c6.992-0.696,13.984-1.438,20.964-2.167c1.209-3.308,2.407-6.616,3.582-9.935C210.703,229.891,208.65,230.085,206.609,230.278z
				 M381.905,374.698c-1.608-2.132-3.103-4.311-4.266-6.739c-1.334-2.762-2.965-5.373-4.311-8.122
				c-1.539-3.16-2.965-6.376-4.335-9.616c-0.958-2.258-2.143-4.402-3.114-6.661c-2.018-4.767-4.15-9.489-6.306-14.201
				c-2.715-5.897-5.521-11.759-8.281-17.633c-1.699-3.638-3.341-7.299-5.087-10.927c-1.289-2.656-2.714-5.257-4.049-7.904
				c-0.411-0.821-0.775-1.665-1.129-2.521c-0.49-1.163-0.855-2.373-1.414-3.502c-1.745-3.513-3.604-6.957-5.326-10.481
				c-3.924-8.03-7.871-16.059-11.658-24.145c-1.3-2.772-2.566-5.566-3.809-8.361c-1.471-3.297-2.908-6.616-4.334-9.934
				c-0.331-0.788-0.673-1.563-1.004-2.35c-3.148,0.308-6.297,0.604-9.444,0.924c-3.559,0.365-7.117,0.741-10.664,1.129
				c0.159,0.422,0.319,0.832,0.49,1.255c1.323,3.33,2.76,6.615,4.129,9.923c0.046,0.114,0.091,0.228,0.125,0.342
				c0.126,0.354,0.24,0.718,0.365,1.084c0.023,0.034,0.046,0.068,0.069,0.102c0,0.034,0,0.08,0.011,0.114
				c0.65,1.38,1.311,2.76,1.961,4.14c-0.103,0.046-0.216,0.091-0.32,0.137c-0.547-1.426-1.55-2.669-1.642-4.277
				c-0.011-0.023-0.023-0.057-0.035-0.08c-0.011-0.046-0.034-0.091-0.046-0.136c-0.228-0.354-0.501-0.696-0.718-1.073
				c-0.08-0.137-0.159-0.273-0.217-0.422c-1.505-3.684-3.011-7.38-4.504-11.075c-2.099,0.217-4.198,0.445-6.297,0.661
				c-1.254,0.137-2.509,0.262-3.764,0.388c1.46,3.695,2.874,7.425,4.232,11.166c0.764,2.11,1.517,4.243,2.259,6.376
				c3.216,9.33,6.513,18.648,10.128,27.83c5.109,13.036,10.584,25.937,15.82,38.928c2.144,5.315,4.106,10.711,6.078,16.094
				c4.346,11.885,9.216,23.53,14.873,34.846c3.034,6.068,6.023,12.159,9.17,18.158c1.301,2.475,2.852,4.859,4.54,7.082
				c1.87,2.5,4.619,2.887,7.379,1.415c1.073-0.559,2.144-1.141,3.251-1.631c2.668-1.185,2.806-1.152,4.722,1.049
				c1.083,1.232,2.384,1.677,4.003,1.357c1.996-0.399,3.649-1.414,5.371-2.428c3.433-2.007,5.191-5.155,6.639-8.601
				c0.138-0.352,0.285-0.764,0.241-1.116c-0.183-1.176,0.274-2.156,0.775-3.15C383.765,379.534,383.673,377.037,381.905,374.698z
				 M286.655,238.399c-0.103-0.217-0.205-0.422-0.307-0.639c0.057-0.035,0.114-0.069,0.183-0.091
				c0.102,0.206,0.216,0.422,0.319,0.639C286.781,238.342,286.724,238.365,286.655,238.399z M317.017,286.03
				c-0.068,0.033-0.148,0.068-0.216,0.102c-0.228-0.457-0.445-0.912-0.674-1.369c0.08-0.035,0.16-0.068,0.228-0.102
				C316.584,285.116,316.801,285.573,317.017,286.03z M313.345,278.046c-0.057,0.022-0.126,0.057-0.194,0.091
				c-0.115-0.217-0.239-0.434-0.365-0.662c0.069-0.035,0.126-0.069,0.183-0.104C313.094,277.6,313.219,277.817,313.345,278.046z
				 M306.787,264.233c-0.103,0.069-0.194,0.148-0.296,0.217c-0.104-0.217-0.194-0.433-0.285-0.651
				c0.057-0.046,0.125-0.08,0.194-0.114C306.524,263.869,306.65,264.05,306.787,264.233z M304.46,259.238
				c0.342,0.752,0.684,1.517,1.027,2.27C304.836,260.891,303.992,260.378,304.46,259.238z M303.479,257.23l-0.307,0.137
				c-0.981-1.642-1.632-3.445-2.076-5.338C301.882,253.763,302.68,255.496,303.479,257.23z M319.698,303.115
				c-0.103-0.296-0.206-0.593-0.309-0.89c0.08-0.022,0.148-0.057,0.228-0.09c0.137,0.273,0.274,0.536,0.411,0.81
				C319.915,303.001,319.812,303.058,319.698,303.115z M334.993,334.732c-0.182-0.387-0.376-0.764-0.558-1.152
				c-2.03-4.22-4.107-8.417-6.092-12.649c-1.368-2.919-2.543-5.931-3.934-8.828c-0.343-0.707-0.468-1.494-0.822-2.087
				c-0.445-0.764-0.194-2.133-1.768-2.212c-0.684-0.035-1.015-2.202-0.592-3.319c-0.252-0.148-0.513-0.296-0.833-0.479
				c0.32-1.483-0.581-2.635-1.311-3.822c-0.012-0.011-0.012-0.011-0.023-0.011c-0.799,0.639-0.616-0.251-0.832-0.536
				c0.285,0.172,0.558,0.353,0.832,0.536l0.011-0.011c0,0.011,0.012,0.011,0.012,0.022c0.011,0,0.011,0.012,0.022,0.012
				c-0.388-1.084-0.844-2.122-1.745-2.932c-0.399-0.353-0.649-0.89-0.867-1.391c-5.246-11.612-10.357-23.291-14.668-35.29
				c-0.148-0.399-0.251-0.821-0.433-1.414c1.517,1.688,14.144,27.283,18.466,37.171c5.498,12.614,10.687,25.343,15.444,38.255
				C335.199,334.642,335.096,334.686,334.993,334.732z M351.486,390.085c1.266,0.548,1.484,1.517,2.008,2.658
				C352.216,392.172,351.816,391.341,351.486,390.085z M285.982,216.42c-0.114-0.262-0.216-0.536-0.331-0.799
				c-7.482-18.249-14.691-36.624-22.743-54.645c-1.266-2.818-2.293-5.737-3.411-8.612c-0.171-0.433-0.263-0.901-0.16-1.426
				c0.503,1.209,0.993,2.429,1.53,3.639c2.748,6.193,5.599,12.364,8.246,18.603c3.354,7.916,6.627,15.877,9.81,23.861
				c2.463,6.171,4.904,12.353,7.334,18.546c2.064,5.258,4.129,10.528,6.216,15.785c0.775-0.08,1.539-0.148,2.315-0.217
				c5.931-0.524,11.862-1.061,17.794-1.551h0.046c-2.27-5.304-4.517-10.608-6.764-15.923c-1.413-3.353-2.828-6.707-4.243-10.071
				c-3.102-7.38-5.612-14.976-8.041-22.607c-2.919-9.147-5.692-18.34-8.794-27.431c-3.946-11.531-8.247-22.949-12.227-34.469
				c-2.487-7.197-4.666-14.497-6.969-21.751c-1.129-3.524-2.213-7.06-3.354-10.584c-0.227-0.696-0.444-1.46-1.38-1.973
				c0.091,1.026,0.16,1.847,0.239,2.68c-0.387-0.365-0.387-0.855-0.627-1.175c-0.468-0.65-1.015-1.278-1.642-1.779
				c-0.171-0.137-0.731,0.251-1.118,0.343c-0.183,0.045-0.399-0.023-0.605-0.057c-0.467-0.069-0.935-0.251-1.391-0.217
				c-1.448,0.091-1.528,0.069-2.064-1.266c-0.411-1.026-0.936-1.939-2.064-2.566c-0.035,0.536-0.057,0.924-0.08,1.449
				c-1.129-1.061-2.042-2.042-3.513-2.316c-1.38-0.262-2.692-1.106-4.049-1.163c-1.38-0.046-2.669-0.182-3.992-0.582
				c-0.547-0.171-1.357,0.273-1.973,0.593c-0.479,0.24-0.855,0.685-1.243,1.083c-1.745,1.734-2.988,3.81-4.061,6
				c-1.3,2.669-2.43,5.429-4.46,7.699c-0.661,0.741-1.152,1.825-1.3,2.806c-0.833,5.315-2.726,10.345-4.106,15.512
				c-1.084,4.038-2.407,8.018-3.719,11.987c-2.441,7.38-4.939,14.725-7.437,22.081c-3.308,9.763-6.889,19.458-9.923,29.313
				c-4.973,16.162-9.9,32.336-15.763,48.224c-0.251,0.696-0.502,1.38-0.764,2.076c-0.41,1.095-0.821,2.179-1.22,3.274
				c-0.046,0.114-0.091,0.228-0.137,0.342c-0.171,0.468-0.354,0.947-0.524,1.415c0.581-0.194,1.174-0.536,1.653-0.411
				c0.742,0.194,1.392,0.194,2.099,0.126c3.068-0.274,6.147-0.525,9.216-0.821c5.418-0.513,10.836-1.107,16.253-1.574
				c0.296-0.023,0.592-0.046,0.889-0.068c0.046-0.114,0.08-0.24,0.125-0.354c0.719-2.03,1.415-4.06,2.11-6.102
				c0.73-2.121,1.449-4.243,2.179-6.365c0.251-0.707,0.639-1.38,0.867-2.098c0.479-1.494,1.688-2.863,0.901-4.631
				c0.308-0.171,0.776-0.285,0.833-0.502c0.456-1.688,1.791-3.114,1.38-5.076c-0.102-0.536-0.046-1.437,0.924-1.414
				c-0.24-0.491-0.456-0.924-0.707-1.438c0.502-0.057,0.776-0.091,1.038-0.114c0-0.091-0.011-0.183-0.023-0.262
				c-0.456-0.057-0.912-0.103-1.768-0.194c0.833-0.65,1.391-1.083,1.939-1.505l0.046-0.046c-0.011,0.012-0.023,0.023-0.034,0.023
				c0.433-0.593,0.867-1.175,1.266-1.791c0.228-0.365,0.377-0.799,0.491-1.061c-0.65,0.046-1.175,0.08-1.7,0.114
				c0.433-0.559,0.89-0.912,1.392-1.197c0.182-0.103,0.593,0,0.65-0.114c0.502-1.141,1.334-2.316,1.3-3.467
				c-0.023-1.072,0.239-1.711,0.981-2.361c-0.308-0.718-0.262-1.209,0.308-1.905c0.741-0.878,1.13-2.099,1.471-3.239
				c0.342-1.118,0.502-2.235,1.197-3.262c0.434-0.662,0.719-1.768,0.468-2.453c-0.342-0.935,0.091-1.437,0.536-1.87
				c0.912-0.878,1.391-1.95,1.825-3.068c0.457-1.175,0.855-2.384,1.277-3.571c1.688-4.779,3.388-9.558,5.076-14.337
				c0.285-0.833,0.387-1.757,0.821-2.498c0.457-0.776,0.628-1.574,0.867-2.406c0.445-1.506,0.912-3.057,2.258-4.38
				c0.65,1.62,1.243,3.091,1.836,4.562c3.764,9.444,7.87,18.717,12.307,27.865c2.27,4.654,4.676,9.262,6.753,14.006
				c3.616,8.258,7.105,16.561,10.63,24.853c0.81,1.916,1.632,3.833,2.453,5.749c1.494,3.467,2.943,6.958,4.334,10.459
				c0.183-0.023,0.376-0.046,0.559-0.057c3.171-0.262,6.341-0.593,9.512-0.889C290.077,226.412,288.035,221.405,285.982,216.42z
				 M283.222,176.865c-3.319-8.531-6.65-17.063-9.98-25.583c0.126-0.057,0.251-0.114,0.376-0.171
				c3.467,8.486,6.889,16.983,9.934,25.617C283.451,176.773,283.336,176.819,283.222,176.865z M261.665,89.941
				c0.252,0.661,0.537,1.312,0.753,1.973c1.255,3.832,2.441,7.676,3.741,11.474c2.349,6.832,4.802,13.63,7.163,20.462
				c5.27,15.25,11.439,30.203,15.934,45.737c0.137,0.491,0.194,1.015,0.285,1.517c0.011,0.023,0.035,0.046,0.046,0.069
				c0,0.046,0.011,0.091,0.011,0.136c0.309,0.765,0.651,1.506,0.901,2.293c0.673,2.03,1.301,4.061,1.757,6.171
				c-0.285-0.776-0.581-1.54-0.855-2.316c-0.547-1.608-1.095-3.228-1.608-4.847c-0.125-0.41-0.148-0.867-0.194-1.3
				c-0.011-0.034-0.034-0.08-0.046-0.114c-0.011-0.035-0.011-0.057-0.011-0.091c-0.194-0.285-0.444-0.536-0.536-0.844
				c-4.334-14.189-9.821-27.978-14.862-41.916c-3.204-8.862-6.16-17.815-9.181-26.735c-1.197-3.547-2.27-7.117-3.399-10.687
				C261.483,90.637,261.471,90.317,261.665,89.941z M207.612,162.996c0.262,1.699-7.208,25.412-8.942,27.989
				C201.647,181.655,204.624,172.325,207.612,162.996z M221.425,203.874c-0.285,0.376-0.57,0.764-0.958,1.289
				c-0.296-0.399-0.422-0.514-0.479-0.662c-0.046-0.137-0.034-0.308-0.069-0.627c0.445-0.091,0.878-0.171,1.312-0.262
				C221.299,203.703,221.368,203.783,221.425,203.874z M227.721,182.534c-0.091-0.068-0.194-0.148-0.285-0.217
				c0.262-0.513,0.525-1.015,0.855-1.642C228.93,181.804,228.93,181.804,227.721,182.534z M229.523,156.346
				c0.194-0.707,0.399-1.403,0.662-2.35C230.572,155.354,230.572,155.354,229.523,156.346z M244.521,112.947
				c-0.125-0.467-0.251-0.935-0.387-1.403c0.183-0.034,0.354-0.057,0.536-0.091c0.068,0.468,0.148,0.936,0.228,1.415
				C244.773,112.89,244.647,112.924,244.521,112.947z M246.997,119.802c-0.491-1.312-0.981-2.612-1.471-3.924
				c0.159-0.035,0.308-0.069,0.456-0.114c0.445,1.312,0.889,2.612,1.323,3.924C247.202,119.721,247.099,119.767,246.997,119.802z
				 M258.174,151.897c-0.137-0.239-0.263-0.479-0.388-0.718c0.046-0.023,0.103-0.057,0.159-0.091c0.126,0.24,0.263,0.48,0.388,0.719
				C258.288,151.829,258.231,151.863,258.174,151.897z M276.174,211.687c0.137,0.262,0.273,0.513,0.422,0.775
				c-0.08,0.057-0.16,0.114-0.228,0.171c-0.137-0.285-0.263-0.559-0.4-0.844C276.037,211.756,276.105,211.721,276.174,211.687z
				 M274.611,208.836c-2.087-4.779-4.175-9.57-6.251-14.36c-0.17-0.41-0.216-0.867-0.318-1.311
				c-0.023-0.023-0.046-0.046-0.058-0.069c-0.011-0.034-0.022-0.057-0.033-0.091c-0.764-0.684-0.89-1.665-1.267-2.544
				c0.114-0.046,0.228-0.091,0.342-0.136c0.309,0.889,0.616,1.79,0.924,2.68c0.022,0.035,0.046,0.046,0.068,0.069
				c0.011,0.035,0.011,0.057,0.023,0.091c0.205,0.274,0.455,0.502,0.593,0.81c2.259,5.178,4.494,10.379,6.741,15.569
				c0.103,0.24,0.148,0.491,0,0.821C275.124,209.862,274.839,209.36,274.611,208.836z M191.12,244.592
				c-4.471,0.411-8.965,0.707-13.436,1.084c-1.54,4.152-3.057,8.292-4.562,12.455c-0.559,1.54-1.118,3.091-1.677,4.643
				c-4.414,12.317-8.178,24.841-11.805,37.399c-2.623,9.113-5.897,18.021-9.067,26.952c-2.441,6.856-5.178,13.608-7.699,20.439
				c-1.608,4.346-3.091,8.737-4.597,13.117c-1.597,4.644-3.193,9.286-4.733,13.951c-0.41,1.254-0.639,2.566-0.878,3.865
				c-0.285,1.553,0.183,2.818,1.528,3.742c0.399,0.263,0.89,0.593,1.038,0.991c0.411,1.152,1.323,1.733,2.258,2.328
				c3.524,2.223,7.459,3.547,11.303,5.064c1.015,0.41,2.11,0.604,3.17-0.125c0.308-0.207,0.856-0.172,1.278-0.116
				c1.563,0.194,2.783-0.388,3.775-1.573c0.388-0.457,0.776-0.947,1.266-1.29c0.855-0.604,1.426-1.265,1.483-2.406
				c0.057-0.98,0.661-1.276,1.722-1.118c0.206,0.036,0.422,0.047,0.604,0.069c0.89-1.484,1.392-2.987,1.209-4.676
				c-0.023-0.218,0.046-0.446,0.091-0.662c0.833-3.593,1.631-7.209,2.51-10.791c0.889-3.593,1.928-7.14,2.783-10.733
				c0.65-2.795,1.049-5.646,1.711-8.428c1.266-5.361,2.555-10.71,3.969-16.025c1.163-4.414,2.418-8.817,3.786-13.174
				c1.438-4.573,3-9.112,4.574-13.641c2.133-6.102,4.391-12.158,6.467-18.272c2.076-6.091,3.65-12.329,5.623-18.454
				c0.525-1.62,1.027-3.263,1.551-4.893c0.046-0.137,0.183-0.251,0.273-0.365h1.471c0.068-0.695,0.114-1.278,0.171-1.847
				c0.399,0.069,0.833,0.274,1.06,0.137c0.297-0.183,0.422-0.627,0.593-0.901c0.262,0.239,0.536,0.479,1.015,0.912
				c-0.034-0.798-0.171-1.323-0.068-1.779c0.285-1.209,0.685-2.395,1.026-3.593c0.901-0.136,1.026-0.946,1.289-1.562
				c0.023-0.057,0.046-0.103,0.068-0.16c0.514-1.209,0.913-2.464,1.38-3.684c0.97-2.509,2.008-4.996,2.943-7.528
				c0.125-0.342,0.251-0.673,0.365-1.015C202.343,243.486,196.743,244.068,191.12,244.592z M136.691,377.87
				c-0.091,0-0.183,0-0.274,0.011v-1.049c0.091,0,0.183,0.011,0.274,0.011V377.87z M157.895,366.143
				c-1.107,3.399-2.361,6.741-3.57,10.107c-0.194,0.559-0.388,1.221-1.232,0.728c1.984-5.634,3.946-11.223,5.908-16.8
				c0.137,0.034,0.262,0.057,0.388,0.091C158.898,362.232,158.522,364.228,157.895,366.143z"/>
			<path style="fill-rule:evenodd;clip-rule:evenodd;" d="M223.232,197.749c0.163-0.007,0.334-0.05,0.484-0.011
				c0.135,0.036,0.265,0.146,0.355,0.258c0.029,0.036-0.076,0.262-0.116,0.261c-0.179-0.006-0.392-0.015-0.525-0.114
				c-0.104-0.077-0.106-0.29-0.154-0.441C223.276,197.702,223.232,197.749,223.232,197.749z"/>
		</g>
	</g>
</g>
</svg>
